<?xml version="1.0" encoding="UTF-8"?>
<svg version="1.1" xmlns="http://www.w3.org/2000/svg" width="256" height="256">
<path d="M0 0 C0.92941406 0.27328125 1.85882813 0.5465625 2.81640625 0.828125 C5.14697194 1.64781725 7.26371186 2.5838266 9.4375 3.75 C9.4375 4.41 9.4375 5.07 9.4375 5.75 C10.0975 5.75 10.7575 5.75 11.4375 5.75 C11.4375 6.41 11.4375 7.07 11.4375 7.75 C12.0975 7.75 12.7575 7.75 13.4375 7.75 C18.09282945 16.45344202 19.18843099 26.91756278 16.71875 36.5546875 C14.77196758 41.21754538 12.25121328 44.46596912 8.4375 47.75 C9.51 48.28625 10.5825 48.8225 11.6875 49.375 C12.41324219 49.74367187 13.13898438 50.11234375 13.88671875 50.4921875 C15.70480867 51.38870351 17.54354526 52.24384848 19.39453125 53.0703125 C26.146373 56.17870757 31.362122 59.37863439 35.4375 65.75 C35.4375 66.41 35.4375 67.07 35.4375 67.75 C36.0975 67.75 36.7575 67.75 37.4375 67.75 C37.46276648 75.27969652 37.48033141 82.8093822 37.49243164 90.33911133 C37.4974737 92.90291757 37.50430714 95.46672091 37.51293945 98.03051758 C37.52501064 101.70655021 37.53072942 105.38254498 37.53515625 109.05859375 C37.54031754 110.21274277 37.54547882 111.36689178 37.55079651 112.55601501 C37.55087204 113.61703934 37.55094757 114.67806366 37.55102539 115.77124023 C37.553246 116.71055893 37.55546661 117.64987762 37.55775452 118.61766052 C37.4375 120.75 37.4375 120.75 36.4375 121.75 C34.625 121.8828125 34.625 121.8828125 32.4375 121.875 C31.715625 121.87757813 30.99375 121.88015625 30.25 121.8828125 C28.4375 121.75 28.4375 121.75 27.4375 120.75 C27.33570921 119.21129706 27.30181488 117.66803044 27.2956543 116.12597656 C27.28510262 114.64874115 27.28510262 114.64874115 27.27433777 113.1416626 C27.27017349 112.06882019 27.26600922 110.99597778 27.26171875 109.890625 C27.23851651 107.63801153 27.21439901 105.38540734 27.18945312 103.1328125 C27.15434169 99.56666912 27.12500326 96.00086545 27.11157227 92.43457031 C27.09610326 89.00283177 27.05589117 85.57209838 27.01171875 82.140625 C27.01362717 81.07587952 27.01553558 80.01113403 27.01750183 78.91412354 C26.92456996 73.06073019 26.92456996 73.06073019 24.7409668 67.72119141 C20.51368472 64.10369533 15.60238887 62.14025326 10.5625 59.875 C9.48613281 59.36453125 8.40976562 58.8540625 7.30078125 58.328125 C6.25535156 57.85117188 5.20992187 57.37421875 4.1328125 56.8828125 C3.18422363 56.44855957 2.23563477 56.01430664 1.25830078 55.56689453 C-3.50000482 54.18890504 -7.46487383 55.49541793 -11.875 57.45703125 C-12.64070313 57.79669922 -13.40640625 58.13636719 -14.1953125 58.48632812 C-14.97648437 58.84146484 -15.75765625 59.19660156 -16.5625 59.5625 C-17.73425781 60.07780273 -17.73425781 60.07780273 -18.9296875 60.60351562 C-27.31641861 64.29618674 -27.31641861 64.29618674 -33.5625 70.75 C-33.88296374 73.06471596 -33.88296374 73.06471596 -33.86547852 75.66455078 C-33.89044151 77.16092575 -33.89044151 77.16092575 -33.91590881 78.68753052 C-33.92432297 79.76259857 -33.93273712 80.83766663 -33.94140625 81.9453125 C-33.95840073 83.04849823 -33.9753952 84.15168396 -33.99290466 85.28829956 C-34.04611089 88.81714136 -34.086375 92.34597077 -34.125 95.875 C-34.16885985 99.41111067 -34.21549456 102.94712782 -34.26780701 106.48312378 C-34.29987955 108.68546555 -34.32673302 110.8878903 -34.34803772 113.09036255 C-34.36152756 114.08164154 -34.3750174 115.07292053 -34.38891602 116.09423828 C-34.39842789 116.97121368 -34.40793976 117.84818909 -34.41773987 118.7517395 C-34.5625 120.75 -34.5625 120.75 -35.5625 121.75 C-37.375 121.8828125 -37.375 121.8828125 -39.5625 121.875 C-40.284375 121.87757813 -41.00625 121.88015625 -41.75 121.8828125 C-43.5625 121.75 -43.5625 121.75 -44.5625 120.75 C-44.67114896 119.29407566 -44.71152572 117.83296937 -44.72363281 116.37304688 C-44.73324036 115.44117554 -44.7428479 114.5093042 -44.75274658 113.54919434 C-44.75699646 112.53264771 -44.76124634 111.51610107 -44.765625 110.46875 C-44.77132507 109.42609985 -44.77702515 108.38344971 -44.78289795 107.3092041 C-44.79236951 105.09319072 -44.79889044 102.87716311 -44.80273438 100.66113281 C-44.81237959 97.29206084 -44.8433576 93.92361453 -44.875 90.5546875 C-44.88153591 88.40104529 -44.88678407 86.24739871 -44.890625 84.09375 C-44.9029718 83.09339722 -44.9153186 82.09304443 -44.92803955 81.06237793 C-44.90473589 73.63054353 -43.74449534 67.36314239 -39.87109375 60.94921875 C-36.77974412 58.00432901 -33.46815091 56.35970731 -29.625 54.5625 C-28.57022461 54.04913086 -28.57022461 54.04913086 -27.49414062 53.52539062 C-23.90089187 51.79106718 -20.29246286 50.17337135 -16.5625 48.75 C-16.97242187 48.16992188 -17.38234375 47.58984375 -17.8046875 46.9921875 C-18.61292969 45.82042969 -18.61292969 45.82042969 -19.4375 44.625 C-20.23800781 43.47644531 -20.23800781 43.47644531 -21.0546875 42.3046875 C-25.79887012 34.26661643 -25.56682171 24.80812712 -24.5625 15.75 C-22.73405405 9.01315302 -18.64456409 5.52606425 -12.84375 1.94140625 C-7.94843534 -0.61522212 -5.43758196 -1.6637942 0 0 Z M-12.5625 12.75 C-15.31881357 16.62637032 -14.96679185 21.05703496 -15 25.625 C-15.03287109 26.41519531 -15.06574219 27.20539063 -15.09960938 28.01953125 C-15.13811829 32.22750555 -14.87493403 34.91206766 -12.15625 38.23046875 C-9.23386004 41.18170778 -9.23386004 41.18170778 -5.5625 42.75 C0.00574349 42.62895123 2.56421559 40.44313165 6.4375 36.75 C8.11434287 33.39631427 7.74837794 29.68410362 7.8125 26 C7.84988281 25.20078125 7.88726562 24.4015625 7.92578125 23.578125 C7.9886315 19.33224178 7.77357873 16.59776969 5.0390625 13.234375 C1.43250937 9.79027922 -0.52840997 9.4586702 -5.52734375 9.53125 C-8.50024757 9.85079436 -10.27248159 10.86410248 -12.5625 12.75 Z " fill="#339CA8" transform="translate(51.5625,127.25)"/>
<path d="M0 0 C0.89203125 0.00902344 1.7840625 0.01804687 2.703125 0.02734375 C3.37859375 0.03894531 4.0540625 0.05054687 4.75 0.0625 C4.75 0.7225 4.75 1.3825 4.75 2.0625 C5.471875 2.289375 6.19375 2.51625 6.9375 2.75 C11.53068627 4.89348693 15.12960203 8.73884335 17.75 13.0625 C19.67082721 22.29314188 20.49635705 33.56078353 15.75 42.0625 C13.88510385 44.34498104 11.99140965 46.11994497 9.75 48.0625 C10.67941406 48.52140625 11.60882813 48.9803125 12.56640625 49.453125 C16.30403449 51.30375606 20.02700688 53.18261324 23.75 55.0625 C24.50152344 55.42859375 25.25304687 55.7946875 26.02734375 56.171875 C31.60337674 59.05472199 35.67105442 63.08970798 37.81445312 68.99536133 C39.19046574 74.01256356 39.01720266 79.04414681 38.98046875 84.2109375 C38.98001053 85.26407135 38.97955231 86.3172052 38.9790802 87.4022522 C38.97607114 89.61599869 38.9682254 91.82974331 38.95581055 94.04345703 C38.93744866 97.44701548 38.93530176 100.85030323 38.93554688 104.25390625 C38.93063522 106.40625237 38.92480844 108.55859664 38.91796875 110.7109375 C38.91685593 111.73375824 38.9157431 112.75657898 38.91459656 113.81039429 C38.90821671 114.74872101 38.90183685 115.68704773 38.89526367 116.65380859 C38.89145187 117.48318939 38.88764008 118.31257019 38.88371277 119.16708374 C38.75 121.0625 38.75 121.0625 37.75 122.0625 C35.9375 122.1953125 35.9375 122.1953125 33.75 122.1875 C33.028125 122.19007813 32.30625 122.19265625 31.5625 122.1953125 C29.75 122.0625 29.75 122.0625 28.75 121.0625 C28.64820921 119.52379706 28.61431488 117.98053044 28.6081543 116.43847656 C28.59760262 114.96124115 28.59760262 114.96124115 28.58683777 113.4541626 C28.58267349 112.38132019 28.57850922 111.30847778 28.57421875 110.203125 C28.55101651 107.95051153 28.52689901 105.69790734 28.50195312 103.4453125 C28.46684169 99.87916912 28.43750326 96.31336545 28.42407227 92.74707031 C28.40860326 89.31533177 28.36839117 85.88459838 28.32421875 82.453125 C28.32612717 81.38837952 28.32803558 80.32363403 28.33000183 79.22662354 C28.23741154 73.37262281 28.23741154 73.37262281 26.05126953 68.03369141 C21.8387626 64.42539722 16.95881348 62.45383611 11.9375 60.1875 C10.86951172 59.67703125 9.80152344 59.1665625 8.70117188 58.640625 C0.98222206 55.03666125 0.98222206 55.03666125 -7.25 56.0625 C-10.89120226 57.49765444 -14.41287823 59.11282177 -17.9375 60.8125 C-18.87400391 61.24304688 -19.81050781 61.67359375 -20.77539062 62.1171875 C-21.67837891 62.54773438 -22.58136719 62.97828125 -23.51171875 63.421875 C-24.73314575 64.00146973 -24.73314575 64.00146973 -25.97924805 64.59277344 C-29.00044753 66.54822133 -30.44217149 67.89639001 -32.25 71.0625 C-32.84395922 74.85799543 -32.83109381 78.61738653 -32.82421875 82.453125 C-32.83838333 83.55348083 -32.85254791 84.65383667 -32.86714172 85.78753662 C-32.90903169 89.29595772 -32.92428616 92.80386397 -32.9375 96.3125 C-32.966512 99.83517962 -33.00098318 103.35772742 -33.03999329 106.88031006 C-33.0625632 109.07153364 -33.07833207 111.26283929 -33.08683777 113.4541626 C-33.09387222 114.43898621 -33.10090668 115.42380981 -33.1081543 116.43847656 C-33.11337349 117.74489105 -33.11337349 117.74489105 -33.11869812 119.07769775 C-33.25 121.0625 -33.25 121.0625 -34.25 122.0625 C-36.0625 122.1953125 -36.0625 122.1953125 -38.25 122.1875 C-38.971875 122.19007813 -39.69375 122.19265625 -40.4375 122.1953125 C-42.25 122.0625 -42.25 122.0625 -43.25 121.0625 C-43.35346998 119.59578382 -43.38850603 118.12415438 -43.39526367 116.65380859 C-43.40164352 115.71548187 -43.40802338 114.77715515 -43.41459656 113.81039429 C-43.41570938 112.78757355 -43.4168222 111.76475281 -43.41796875 110.7109375 C-43.42129715 109.66354401 -43.42462555 108.61615051 -43.42805481 107.53701782 C-43.43313092 105.31260621 -43.43546293 103.08818693 -43.43530273 100.86376953 C-43.43747733 97.47285189 -43.4555929 94.08226574 -43.47460938 90.69140625 C-43.47754559 88.53125111 -43.47952886 86.37109443 -43.48046875 84.2109375 C-43.48765427 83.20026215 -43.49483978 82.18958679 -43.50224304 81.14828491 C-43.47516271 72.7227128 -42.52621618 66.4391936 -36.66015625 60.0625 C-32.14701708 56.3173991 -24.23723095 51.0625 -18.25 51.0625 C-17.59 49.4125 -16.93 47.7625 -16.25 46.0625 C-17.03375 45.216875 -17.8175 44.37125 -18.625 43.5 C-24.12945023 37.56098791 -23.61973874 29.24892761 -23.5 21.66796875 C-23.08947683 15.74745495 -21.82537031 11.93591334 -17.9375 7.3125 C-11.93534879 2.28744317 -7.79223073 -0.10252935 0 0 Z M-10.25 12.0625 C-13.31496791 17.01651991 -13.74177613 20.97534797 -13.6875 26.625 C-13.70748047 27.36685547 -13.72746094 28.10871094 -13.74804688 28.87304688 C-13.74459195 32.75293219 -13.52788596 34.63209451 -11.37109375 37.97265625 C-8.14448876 41.15172378 -5.96636315 43.0625 -1.3125 43.0625 C2.72410491 41.74442493 4.70995543 40.03184586 7.75 37.0625 C9.02595098 33.23464707 8.93415169 29.6128343 8.9375 25.625 C8.95586914 24.4793457 8.95586914 24.4793457 8.97460938 23.31054688 C9.02986128 17.88781056 9.02986128 17.88781056 6.75 13.0625 C2.13188931 9.25935002 -5.29959854 8.02883955 -10.25 12.0625 Z " fill="#369CA4" transform="translate(210.25,126.9375)"/>
<path d="M0 0 C3.29323263 0.18295737 4.72810788 0.33246054 7.375 2.1875 C8.203125 4.5703125 8.203125 4.5703125 8.625 7.3125 C8.77453125 8.22257813 8.9240625 9.13265625 9.078125 10.0703125 C9.22507812 11.11832031 9.22507812 11.11832031 9.375 12.1875 C13.55362632 10.87028915 13.55362632 10.87028915 17.5 9 C19.99037757 7.92083639 20.83930773 8.23945048 23.375 9.1875 C25.76953125 11.078125 25.76953125 11.078125 28.1875 13.4375 C29.40373047 14.58992187 29.40373047 14.58992187 30.64453125 15.765625 C32.375 18.1875 32.375 18.1875 32.234375 20.78515625 C31.18474073 23.71936114 29.79209199 26.41492871 28.375 29.1875 C28.375 29.8475 28.375 30.5075 28.375 31.1875 C29.7053125 31.0946875 29.7053125 31.0946875 31.0625 31 C34.92336782 31.21853969 36.45233416 31.659789 39.375 34.1875 C39.75359559 37.12843052 39.85275614 39.46394958 39.6875 42.375 C39.66494141 43.12458984 39.64238281 43.87417969 39.61914062 44.64648438 C39.56029157 46.4943447 39.47060938 48.34117667 39.375 50.1875 C38.66472656 50.44144531 37.95445312 50.69539063 37.22265625 50.95703125 C36.30355469 51.30121094 35.38445312 51.64539063 34.4375 52 C33.52097656 52.33644531 32.60445313 52.67289063 31.66015625 53.01953125 C29.0409576 54.02159094 29.0409576 54.02159094 28.375 57.1875 C29.365 58.6415625 29.365 58.6415625 30.375 60.125 C32.375 63.1875 32.375 63.1875 32.25390625 65.12109375 C31.09893144 67.83656786 29.46910881 69.31183645 27.3125 71.3125 C25.96501493 72.56762669 24.64347218 73.85257028 23.375 75.1875 C23.375 75.8475 23.375 76.5075 23.375 77.1875 C20.39252749 76.72865807 18.92813437 75.88027988 16.375 74.125 C13.41018394 71.82581638 13.41018394 71.82581638 9.375 72.1875 C9.24222656 72.89777344 9.10945313 73.60804688 8.97265625 74.33984375 C8.79605469 75.25894531 8.61945313 76.17804688 8.4375 77.125 C8.26347656 78.04152344 8.08945313 78.95804687 7.91015625 79.90234375 C7.375 82.1875 7.375 82.1875 6.375 83.1875 C3.67845146 83.26069621 1.00808542 83.27992537 -1.6875 83.25 C-2.44611328 83.24548828 -3.20472656 83.24097656 -3.98632812 83.23632812 C-5.86591871 83.2245068 -7.74546899 83.20657078 -9.625 83.1875 C-10.12867757 81.73043274 -10.62782556 80.27179904 -11.125 78.8125 C-11.4034375 78.00039062 -11.681875 77.18828125 -11.96875 76.3515625 C-12.625 74.1875 -12.625 74.1875 -12.625 72.1875 C-16.27429629 72.62016655 -16.27429629 72.62016655 -19.125 74.75 C-20.625 76.1875 -20.625 76.1875 -22.8828125 76.5625 C-26.73341311 76.03592214 -28.25524142 74.32548828 -31 71.625 C-31.89460938 70.77808594 -32.78921875 69.93117188 -33.7109375 69.05859375 C-35.625 66.1875 -35.625 66.1875 -35.51171875 62.5625 C-34.60781787 59.12210194 -33.36209522 56.28406105 -31.625 53.1875 C-32.33527344 53.05472656 -33.04554687 52.92195313 -33.77734375 52.78515625 C-34.69644531 52.60855469 -35.61554688 52.43195313 -36.5625 52.25 C-37.47902344 52.07597656 -38.39554687 51.90195313 -39.33984375 51.72265625 C-41.625 51.1875 -41.625 51.1875 -42.625 50.1875 C-42.69819621 47.49095146 -42.71742537 44.82058542 -42.6875 42.125 C-42.68298828 41.36638672 -42.67847656 40.60777344 -42.67382812 39.82617188 C-42.6620068 37.94658129 -42.64407078 36.06703101 -42.625 34.1875 C-41.35660474 33.68134702 -40.08516898 33.18280901 -38.8125 32.6875 C-38.10480469 32.4090625 -37.39710937 32.130625 -36.66796875 31.84375 C-34.625 31.1875 -34.625 31.1875 -31.625 31.1875 C-32.81788233 26.26888585 -32.81788233 26.26888585 -35.3125 21.9375 C-35.745625 21.36 -36.17875 20.7825 -36.625 20.1875 C-35.54096829 16.93540487 -34.82508284 16.27364306 -32.25 14.1875 C-30.40248084 12.67803754 -28.67182348 11.23791637 -27.046875 9.48828125 C-26.34304687 8.84439453 -26.34304687 8.84439453 -25.625 8.1875 C-22.01266925 8.47268401 -18.95794171 9.83630741 -15.625 11.1875 C-14.965 11.1875 -14.305 11.1875 -13.625 11.1875 C-13.40585938 10.47722656 -13.18671875 9.76695312 -12.9609375 9.03515625 C-12.0106219 6.28078623 -11.03034501 3.74148613 -9.625 1.1875 C-6.27597572 -0.15210971 -3.59621089 0.18601091 0 0 Z M-2.625 11.1875 C-2.8209375 11.73019531 -3.016875 12.27289063 -3.21875 12.83203125 C-5.5972571 18.52199435 -5.5972571 18.52199435 -8.53125 20.421875 C-13.70568645 22.46848046 -16.41849814 21.92300062 -21.625 20.1875 C-22.615 21.6725 -22.615 21.6725 -23.625 23.1875 C-22.635 24.6725 -22.635 24.6725 -21.625 26.1875 C-21.36739721 28.88202521 -21.53599947 31.47298375 -21.625 34.1875 C-22.285 34.1875 -22.945 34.1875 -23.625 34.1875 C-23.955 35.8375 -24.285 37.4875 -24.625 39.1875 C-27.265 39.8475 -29.905 40.5075 -32.625 41.1875 C-32.625 41.8475 -32.625 42.5075 -32.625 43.1875 C-29.71899739 44.44414978 -27.82895416 45.1875 -24.625 45.1875 C-23.91166773 48.01512342 -23.21931067 50.84618568 -22.5625 53.6875 C-22.38589844 54.4403125 -22.20929688 55.193125 -22.02734375 55.96875 C-21.625 58.1875 -21.625 58.1875 -21.625 62.1875 C-20.614375 62.125625 -19.60375 62.06375 -18.5625 62 C-14.05085886 62.21484005 -11.67668537 63.31749137 -7.625 65.1875 C-6.635 65.1875 -5.645 65.1875 -4.625 65.1875 C-4.295 67.4975 -3.965 69.8075 -3.625 72.1875 C-2.305 72.1875 -0.985 72.1875 0.375 72.1875 C0.705 69.8775 1.035 67.5675 1.375 65.1875 C3.85 64.6925 3.85 64.6925 6.375 64.1875 C6.375 63.5275 6.375 62.8675 6.375 62.1875 C12.04776511 61.89408112 15.36567246 62.18190348 20.375 65.1875 C20.87 64.1975 20.87 64.1975 21.375 63.1875 C20.88 62.445 20.385 61.7025 19.875 60.9375 C17.96271751 57.43164876 18.36537082 55.99302538 19.375 52.1875 C19.6534375 50.6096875 19.6534375 50.6096875 19.9375 49 C21.59010037 45.76665145 22.23340535 45.53963344 25.5 44.3125 C26.78482976 43.91470573 28.07491255 43.53217435 29.375 43.1875 C28.88 41.7025 28.88 41.7025 28.375 40.1875 C26.065 39.8575 23.755 39.5275 21.375 39.1875 C21.23578125 38.61773437 21.0965625 38.04796875 20.953125 37.4609375 C20.57632025 35.97917827 20.17126194 34.50423213 19.734375 33.0390625 C18.57511669 28.80331098 18.11937286 26.84980668 19.75 22.625 C20.28625 21.820625 20.8225 21.01625 21.375 20.1875 C20.715 19.8575 20.055 19.5275 19.375 19.1875 C18.6325 19.6825 17.89 20.1775 17.125 20.6875 C13.64905021 22.58347262 12.13170737 22.22658927 8.375 21.1875 C7.03409241 20.53620203 5.69907669 19.87236725 4.375 19.1875 C3.385 19.1875 2.395 19.1875 1.375 19.1875 C0.88 15.7225 0.88 15.7225 0.375 12.1875 C-0.615 11.8575 -1.605 11.5275 -2.625 11.1875 Z M-23.625 61.1875 C-23.955 62.1775 -24.285 63.1675 -24.625 64.1875 C-23.635 64.6825 -23.635 64.6825 -22.625 65.1875 C-21.965 64.5275 -21.305 63.8675 -20.625 63.1875 C-21.615 62.5275 -22.605 61.8675 -23.625 61.1875 Z " fill="#329DA7" transform="translate(129.625,129.8125)"/>
<path d="M0 0 C5.39086192 5.07804595 7.20966017 10.50920728 7.50512695 17.86035156 C7.60891578 33.02407515 7.60891578 33.02407515 2.56347656 38.47558594 C1.07174382 39.97433447 -0.45246353 41.4405935 -1.98046875 42.90234375 C-0.82289063 43.4334375 0.3346875 43.96453125 1.52734375 44.51171875 C3.06652743 45.22499899 4.60558317 45.93855533 6.14453125 46.65234375 C7.28535156 47.17441406 7.28535156 47.17441406 8.44921875 47.70703125 C15.49773193 50.98823566 21.13771453 53.83189187 25.01953125 60.90234375 C26.99101896 66.50514917 27.30034062 71.44609958 27.25 77.30078125 C27.24954178 78.17634674 27.24908356 79.05191223 27.24861145 79.95401001 C27.2456067 81.79113127 27.23777415 83.62825038 27.2253418 85.46533203 C27.20695223 88.28947867 27.20483327 91.11329941 27.20507812 93.9375 C27.20016729 95.72526327 27.19434088 97.51302432 27.1875 99.30078125 C27.18638718 100.14861176 27.18527435 100.99644226 27.18412781 101.8699646 C27.13562235 107.78625265 27.13562235 107.78625265 26.01953125 108.90234375 C24.20703125 109.03515625 24.20703125 109.03515625 22.01953125 109.02734375 C21.29765625 109.02992187 20.57578125 109.0325 19.83203125 109.03515625 C18.01953125 108.90234375 18.01953125 108.90234375 17.01953125 107.90234375 C16.90858034 104.85988258 16.85786514 101.83630883 16.84375 98.79296875 C16.82054531 96.90493685 16.79642772 95.01691598 16.77148438 93.12890625 C16.73639547 90.14217829 16.70704705 87.15585408 16.69360352 84.16894531 C16.67811389 81.29311698 16.63788848 78.41848152 16.59375 75.54296875 C16.59565842 74.6532135 16.59756683 73.76345825 16.59953308 72.84674072 C16.51969581 68.7932988 16.3597761 66.47036817 14.2409668 62.93310547 C12.13459229 61.00752869 10.51763892 59.86039979 7.90234375 58.76953125 C7.13019531 58.43824219 6.35804688 58.10695312 5.5625 57.765625 C4.76457031 57.43949219 3.96664062 57.11335938 3.14453125 56.77734375 C1.56330208 56.10925508 -0.01743765 55.4400067 -1.59765625 54.76953125 C-2.7261499 54.29882202 -2.7261499 54.29882202 -3.87744141 53.81860352 C-5.72372966 53.0142014 -7.52178252 52.10093295 -9.30859375 51.171875 C-12.6666431 49.57631062 -15.3098479 49.6821065 -18.98046875 49.90234375 C-18.98046875 50.56234375 -18.98046875 51.22234375 -18.98046875 51.90234375 C-19.563125 52.12148437 -20.14578125 52.340625 -20.74609375 52.56640625 C-25.72864029 54.49361765 -30.60093222 56.5906356 -35.41796875 58.90234375 C-36.40667969 59.37671875 -37.39539063 59.85109375 -38.4140625 60.33984375 C-41.29281918 62.09251144 -42.36220026 62.94941489 -43.98046875 65.90234375 C-44.44711102 69.0793207 -44.44537474 72.23841782 -44.45703125 75.4453125 C-44.48040054 76.83161613 -44.48040054 76.83161613 -44.50424194 78.2459259 C-44.55173375 81.19389026 -44.57952494 84.14161764 -44.60546875 87.08984375 C-44.64191687 90.04861582 -44.68247012 93.00725227 -44.7281189 95.96589661 C-44.75542114 97.80654473 -44.77673932 99.64729273 -44.79165649 101.48808289 C-44.8697933 107.7916683 -44.8697933 107.7916683 -45.98046875 108.90234375 C-48.65105726 109.04349536 -51.30479113 108.94481482 -53.98046875 108.90234375 C-55.89086521 104.10849843 -56.23506919 99.85100089 -56.09765625 94.7578125 C-56.082117 93.98858963 -56.06657776 93.21936676 -56.05056763 92.42683411 C-56.0139088 90.80549757 -55.97155819 89.18428081 -55.92382812 87.56323242 C-55.8559663 85.10784632 -55.81962717 82.6533187 -55.78515625 80.19726562 C-55.45155794 64.79627451 -55.45155794 64.79627451 -50.98046875 57.90234375 C-50.42617187 56.97679687 -49.871875 56.05125 -49.30078125 55.09765625 C-45.93297655 51.9112821 -42.12276144 50.48291255 -37.85546875 48.77734375 C-36.22451264 48.11628329 -34.59672573 47.44733439 -32.97265625 46.76953125 C-32.2544873 46.48190918 -31.53631836 46.19428711 -30.79638672 45.89794922 C-28.64500147 44.90063607 -28.64500147 44.90063607 -26.98046875 41.90234375 C-27.39039062 41.47824219 -27.8003125 41.05414063 -28.22265625 40.6171875 C-28.76148437 40.03066406 -29.3003125 39.44414063 -29.85546875 38.83984375 C-30.38914062 38.27136719 -30.9228125 37.70289063 -31.47265625 37.1171875 C-36.27536825 30.06242661 -35.54527034 21.04784164 -34.98046875 12.90234375 C-33.59640396 5.77657266 -29.63513857 1.89334612 -23.98046875 -2.34765625 C-15.91891685 -7.05022819 -7.30143953 -5.43452154 0 0 Z M-23.98046875 9.90234375 C-25.65731162 13.25602948 -25.29134669 16.96824013 -25.35546875 20.65234375 C-25.39285156 21.4515625 -25.43023437 22.25078125 -25.46875 23.07421875 C-25.53154922 27.31665514 -25.32517254 30.04084972 -22.578125 33.390625 C-19.65084317 36.33421933 -19.65084317 36.33421933 -15.98046875 37.90234375 C-10.41222526 37.78129498 -7.85375316 35.5954754 -3.98046875 31.90234375 C-2.36086305 28.66313235 -2.7542312 25.14529994 -2.73046875 21.58984375 C-2.70984375 20.82994141 -2.68921875 20.07003906 -2.66796875 19.28710938 C-2.62857059 13.61869859 -3.75391814 10.38580405 -7.60546875 6.08984375 C-14.11263784 2.8362592 -19.60504008 4.15959362 -23.98046875 9.90234375 Z " fill="#32A89A" transform="translate(141.98046875,12.09765625)"/>
<path d="M0 0 C0.92153366 -0.01283524 1.84306732 -0.02567047 2.79252625 -0.03889465 C4.29865227 -0.04997505 4.29865227 -0.04997505 5.83520508 -0.0612793 C6.8627742 -0.06935104 7.89034332 -0.07742279 8.9490509 -0.08573914 C11.13056745 -0.09960136 13.31210588 -0.11031389 15.49365234 -0.11816406 C18.82342057 -0.13533654 22.15218584 -0.17919937 25.48168945 -0.22338867 C27.59952068 -0.23351867 29.71736037 -0.24203381 31.83520508 -0.2487793 C32.82916794 -0.26628738 33.8231308 -0.28379547 34.84721375 -0.30183411 C40.61870626 -0.28381961 44.2209307 0.11883573 48.66723633 4.17700195 C52.3708777 8.78509055 53.24052681 12.32282976 53.13720703 18.09423828 C53.13939743 18.86404022 53.14158783 19.63384216 53.1438446 20.42697144 C53.14614411 22.9547719 53.11997428 25.48138943 53.09301758 28.0090332 C53.08809172 29.76925792 53.08479411 31.52948788 53.08305359 33.28971863 C53.07542897 36.96903345 53.05490871 40.64795712 53.02392578 44.32714844 C52.98420622 49.05306102 52.96629228 53.77872022 52.9566164 58.50478077 C52.94666915 63.0062328 52.92677144 67.50762245 52.90551758 72.0090332 C52.90212183 72.87203348 52.89872608 73.73503376 52.89522743 74.62418556 C52.88370726 77.05177977 52.86519876 79.4792095 52.84423828 81.90673828 C52.84154938 82.63242508 52.83886047 83.35811188 52.83609009 84.10578918 C52.78214626 89.06209202 52.78214626 89.06209202 51.66723633 90.17700195 C48.99664782 90.31815357 46.34291395 90.21947303 43.66723633 90.17700195 C41.62318574 85.947191 41.42426975 82.48769148 41.44018555 77.81640625 C41.43989349 77.0939119 41.43960144 76.37141754 41.43930054 75.62702942 C41.44068794 73.25163541 41.45622108 70.87655956 41.47192383 68.5012207 C41.47565606 66.84927034 41.47850204 65.19731775 41.48049927 63.54536438 C41.48811919 59.20687704 41.50775352 54.86852456 41.52990723 50.53009033 C41.5540071 45.31962623 41.56315446 40.10911692 41.57481384 34.89861298 C41.59417893 26.99131564 41.63251283 19.08431394 41.66723633 11.17700195 C18.40223633 10.68200195 18.40223633 10.68200195 -5.33276367 10.17700195 C-5.33276367 0.06444238 -5.33276367 0.06444238 0 0 Z " fill="#34A79A" transform="translate(160.332763671875,30.822998046875)"/>
<path d="M0 0 C0.91750031 -0.00315216 1.83500061 -0.00630432 2.78030396 -0.009552 C3.76787689 -0.00752777 4.75544983 -0.00550354 5.77294922 -0.00341797 C7.29455154 -0.00485306 7.29455154 -0.00485306 8.84689331 -0.00631714 C10.99037742 -0.00699764 13.1338636 -0.00515238 15.27734375 -0.00097656 C18.57149844 0.00438454 21.86551747 -0.00093163 25.15966797 -0.00732422 C27.23909535 -0.00666363 29.31852266 -0.00538287 31.39794922 -0.00341797 C32.88538132 -0.00645432 32.88538132 -0.00645432 34.40286255 -0.009552 C35.76965652 -0.00482376 35.76965652 -0.00482376 37.1640625 0 C38.37293625 0.00119339 38.37293625 0.00119339 39.60623169 0.00241089 C41.45263672 0.12939453 41.45263672 0.12939453 42.45263672 1.12939453 C42.68992485 7.65481826 42.68992485 7.65481826 41.45263672 10.12939453 C26.27263672 10.45939453 11.09263672 10.78939453 -4.54736328 11.12939453 C-4.87736328 37.19939453 -5.20736328 63.26939453 -5.54736328 90.12939453 C-9.48406816 91.44162949 -11.67224472 90.37235709 -15.54736328 89.12939453 C-15.64012387 78.93277647 -15.71115907 68.73625912 -15.75461197 58.53930473 C-15.77546933 53.80420888 -15.80375307 49.06940213 -15.84912109 44.33447266 C-15.89264501 39.76329845 -15.91651432 35.19240198 -15.92687225 30.62103653 C-15.93425189 28.87873082 -15.94866275 27.13643997 -15.97028351 25.39425278 C-15.99940518 22.95000343 -16.00331573 20.50689547 -16.00146484 18.0625 C-16.01584595 17.34536331 -16.03022705 16.62822662 -16.04504395 15.88935852 C-16.00381325 10.84324305 -14.68011867 8.03311815 -11.54736328 4.12939453 C-7.88809052 0.91366998 -4.81592457 0.00474487 0 0 Z " fill="#37AA96" transform="translate(58.54736328125,30.87060546875)"/>
<path d="M0 0 C0.60972656 0.35449219 1.21945313 0.70898438 1.84765625 1.07421875 C13.82152887 8.20758967 22.07340008 18.20883289 27.0625 31.3125 C26.7325 32.3025 26.4025 33.2925 26.0625 34.3125 C24.21484375 35.04296875 24.21484375 35.04296875 22 35.5 C21.26652344 35.65855469 20.53304687 35.81710938 19.77734375 35.98046875 C19.21144531 36.09003906 18.64554687 36.19960937 18.0625 36.3125 C17.62679687 35.38308594 17.19109375 34.45367187 16.7421875 33.49609375 C10.15078047 19.6821478 2.26043757 10.7816729 -12.625 5.3125 C-23.5076682 2.59627123 -35.39516491 3.29556597 -45.75 7.4375 C-47.9375 8.3125 -47.9375 8.3125 -49.9375 8.3125 C-50.2675 8.9725 -50.5975 9.6325 -50.9375 10.3125 C-52.35163414 11.26481752 -53.79376893 12.17589123 -55.25 13.0625 C-59.2775316 15.68167007 -61.51870509 18.10200516 -63.9375 22.3125 C-64.5975 23.075625 -65.2575 23.83875 -65.9375 24.625 C-68.66060622 28.28417399 -70.17948629 32.10582434 -71.9375 36.3125 C-74.9075 35.6525 -77.8775 34.9925 -80.9375 34.3125 C-80.9375 26.49710635 -74.33062755 16.83558243 -68.9375 11.3125 C-68.2775 11.3125 -67.6175 11.3125 -66.9375 11.3125 C-66.9375 10.6525 -66.9375 9.9925 -66.9375 9.3125 C-65.2578125 7.875 -65.2578125 7.875 -63.0625 6.3125 C-60.83947743 4.71893543 -58.87515275 3.25015275 -56.9375 1.3125 C-39.62175447 -8.32773352 -17.54439415 -10.26033765 0 0 Z " fill="#30A3A2" transform="translate(154.9375,121.6875)"/>
<path d="M0 0 C5.17227107 4.34940976 7.2176499 8.92770793 8.75 15.3125 C8.09 15.3125 7.43 15.3125 6.75 15.3125 C6.6571875 16.859375 6.6571875 16.859375 6.5625 18.4375 C5.64129909 22.83091974 4.18122885 25.50127042 0.75 28.3125 C-4.68039502 31.50343725 -9.204292 31.77517129 -15.25 30.3125 C-20.97351749 27.34067361 -23.51121825 23.45886698 -26.5625 17.9375 C-27.54456513 14.18779677 -27.40941693 11.01661124 -26.25 7.3125 C-22.83965829 3.02521328 -18.42224557 -0.31286025 -13.375 -2.5 C-8.3126717 -2.94667603 -4.45229255 -2.31176728 0 0 Z M-15.25 8.375 C-16.85856522 11.49159511 -16.67213381 13.87512469 -16.25 17.3125 C-14.83333333 19.89583333 -14.83333333 19.89583333 -12.25 21.3125 C-8.81262469 21.73463381 -6.42909511 21.92106522 -3.3125 20.3125 C-1.58928168 17.06879493 -1.72734851 13.8963959 -2.25 10.3125 C-3.08333333 8.14583333 -3.08333333 8.14583333 -5.25 7.3125 C-8.8338959 6.78984851 -12.00629493 6.65178168 -15.25 8.375 Z " fill="#329DA6" transform="translate(137.25,157.6875)"/>
<path d="M0 0 C4.27525049 1.64315677 8.25786796 3.64723584 12.3046875 5.78125 C18.16306871 8.43025715 23.73271049 9.38822695 30.125 9.375 C31.22944458 9.3747583 31.22944458 9.3747583 32.35620117 9.37451172 C40.673836 9.2035706 48.71492061 7.08555128 56 3 C56.474375 2.443125 56.94875 1.88625 57.4375 1.3125 C57.953125 0.879375 58.46875 0.44625 59 0 C61.6875 0.3125 61.6875 0.3125 64 1 C64.66666667 3.66666667 65.33333333 6.33333333 66 9 C49.94761265 17.88049287 33.72199862 23.17417627 15.41796875 17.984375 C8.95154478 15.6055741 2.8859674 12.57416625 -3 9 C-3 4.72290301 -2.29379749 3.44069624 0 0 Z " fill="#3297AC" transform="translate(97,209)"/>
<path d="M0 0 C0.33 0.66 0.66 1.32 1 2 C1.66 2 2.32 2 3 2 C2.99419922 3.27053223 2.98839844 4.54106445 2.98242188 5.85009766 C2.93572516 21.03066207 3.18438982 36.19817499 3.5 51.375 C3.54837811 53.77994388 3.59655623 56.18489179 3.64453125 58.58984375 C3.76072551 64.39327747 3.87934959 70.1966573 4 76 C0.98968256 76.93423645 0.13349732 77.04449911 -3 76 C-3.06946019 66.53383128 -3.12279088 57.06775006 -3.15543652 47.60138226 C-3.1711035 43.20592445 -3.19236044 38.81064078 -3.22631836 34.4152832 C-3.25887524 30.17481076 -3.27684523 25.93450599 -3.28463173 21.69391823 C-3.29018187 20.07474947 -3.30101979 18.45559006 -3.31719017 16.83649254 C-3.33891617 14.57137477 -3.34196903 12.30695297 -3.34057617 10.04174805 C-3.34723801 8.75157272 -3.35389984 7.4613974 -3.36076355 6.13212585 C-3 3 -3 3 -1.47871399 1.05989075 C-0.99073837 0.7101268 -0.50276276 0.36036285 0 0 Z " fill="#2CAA9D" transform="translate(48,43)"/>
<path d="M0 0 C5.97873264 0.11935764 5.97873264 0.11935764 7.08984375 1.23046875 C7.19094728 4.17582445 7.22953654 7.09724435 7.22265625 10.04296875 C7.22361298 10.92702393 7.2245697 11.8110791 7.22555542 12.72192383 C7.22623726 14.59489004 7.22438268 16.46785861 7.22021484 18.34082031 C7.21486664 21.21815263 7.22015968 24.09532883 7.2265625 26.97265625 C7.22590172 28.78776076 7.22462056 30.60286518 7.22265625 32.41796875 C7.22468048 33.28462158 7.22670471 34.15127441 7.22879028 35.04418945 C7.20479384 41.11551866 7.20479384 41.11551866 6.08984375 42.23046875 C4.27734375 42.36328125 4.27734375 42.36328125 2.08984375 42.35546875 C1.36796875 42.35804688 0.64609375 42.360625 -0.09765625 42.36328125 C-1.91015625 42.23046875 -1.91015625 42.23046875 -2.91015625 41.23046875 C-3.09524678 38.37138244 -3.21869165 35.53451603 -3.296875 32.671875 C-3.32239944 31.81238754 -3.34792389 30.95290009 -3.3742218 30.06736755 C-3.42632294 28.24574937 -3.47573851 26.42405272 -3.52270508 24.60229492 C-3.5972555 21.80798978 -3.68788678 19.014501 -3.77929688 16.22070312 C-3.82781278 14.454454 -3.87537076 12.68817824 -3.921875 10.921875 C-3.9509343 10.08225723 -3.97999359 9.24263947 -4.00993347 8.37757874 C-4.05458756 6.32875873 -3.99177865 4.27814919 -3.91015625 2.23046875 C-1.91015625 0.23046875 -1.91015625 0.23046875 0 0 Z " fill="#3097AE" transform="translate(185.91015625,206.76953125)"/>
<path d="M0 0 C2.05078125 0.03255208 4.1015625 0.06510417 6.15234375 0.09765625 C8.39161863 4.53353231 8.34975149 8.57888365 8.1640625 13.42578125 C8.14140823 14.21539246 8.11875397 15.00500366 8.09541321 15.81854248 C8.0456329 17.47944793 7.99069794 19.14020599 7.9309082 20.80078125 C7.8396658 23.3526331 7.76521487 25.90456704 7.69335938 28.45703125 C7.64290643 30.07164548 7.59150757 31.6862305 7.5390625 33.30078125 C7.5160759 34.06739075 7.49308929 34.83400024 7.46940613 35.62384033 C7.26864682 40.98135318 7.26864682 40.98135318 6.15234375 42.09765625 C4.33984375 42.23046875 4.33984375 42.23046875 2.15234375 42.22265625 C1.43046875 42.22523438 0.70859375 42.2278125 -0.03515625 42.23046875 C-1.84765625 42.09765625 -1.84765625 42.09765625 -2.84765625 41.09765625 C-2.94875978 38.15230055 -2.98734904 35.23088065 -2.98046875 32.28515625 C-2.98142548 31.40110107 -2.9823822 30.5170459 -2.98336792 29.60620117 C-2.98404976 27.73323496 -2.98219518 25.86026639 -2.97802734 23.98730469 C-2.97267914 21.10997237 -2.97797218 18.23279617 -2.984375 15.35546875 C-2.98371422 13.54036424 -2.98243306 11.72525982 -2.98046875 9.91015625 C-2.98249298 9.04350342 -2.98451721 8.17685059 -2.98660278 7.28393555 C-2.95843164 0.15636531 -2.95843164 0.15636531 0 0 Z " fill="#2F98AF" transform="translate(65.84765625,206.90234375)"/>
<path d="M0 0 C0.721875 0.00257813 1.44375 0.00515625 2.1875 0.0078125 C2.909375 0.00523437 3.63125 0.00265625 4.375 0 C6.1875 0.1328125 6.1875 0.1328125 7.1875 1.1328125 C7.28860353 4.0781682 7.32719279 6.9995881 7.3203125 9.9453125 C7.32126923 10.82936768 7.32222595 11.71342285 7.32321167 12.62426758 C7.32389351 14.49723379 7.32203893 16.37020236 7.31787109 18.24316406 C7.31252289 21.12049638 7.31781593 23.99767258 7.32421875 26.875 C7.32355797 28.69010451 7.32227681 30.50520893 7.3203125 32.3203125 C7.32233673 33.18696533 7.32436096 34.05361816 7.32644653 34.9465332 C7.30245009 41.01786241 7.30245009 41.01786241 6.1875 42.1328125 C4.375 42.265625 4.375 42.265625 2.1875 42.2578125 C1.465625 42.26039063 0.74375 42.26296875 0 42.265625 C-1.8125 42.1328125 -1.8125 42.1328125 -2.8125 41.1328125 C-2.91360353 38.1874568 -2.95219279 35.2660369 -2.9453125 32.3203125 C-2.94626923 31.43625732 -2.94722595 30.55220215 -2.94821167 29.64135742 C-2.94889351 27.76839121 -2.94703893 25.89542264 -2.94287109 24.02246094 C-2.93752289 21.14512862 -2.94281593 18.26795242 -2.94921875 15.390625 C-2.94855797 13.57552049 -2.94727681 11.76041607 -2.9453125 9.9453125 C-2.94733673 9.07865967 -2.94936096 8.21200684 -2.95144653 7.3190918 C-2.92336507 0.2142121 -2.92336507 0.2142121 0 0 Z " fill="#3593A9" transform="translate(225.8125,206.8671875)"/>
<path d="M0 0 C0.721875 0.00257813 1.44375 0.00515625 2.1875 0.0078125 C2.909375 0.00523437 3.63125 0.00265625 4.375 0 C6.1875 0.1328125 6.1875 0.1328125 7.1875 1.1328125 C7.28860353 4.0781682 7.32719279 6.9995881 7.3203125 9.9453125 C7.32126923 10.82936768 7.32222595 11.71342285 7.32321167 12.62426758 C7.32389351 14.49723379 7.32203893 16.37020236 7.31787109 18.24316406 C7.31252289 21.12049638 7.31781593 23.99767258 7.32421875 26.875 C7.32355797 28.69010451 7.32227681 30.50520893 7.3203125 32.3203125 C7.32233673 33.18696533 7.32436096 34.05361816 7.32644653 34.9465332 C7.30245009 41.01786241 7.30245009 41.01786241 6.1875 42.1328125 C4.375 42.265625 4.375 42.265625 2.1875 42.2578125 C1.465625 42.26039063 0.74375 42.26296875 0 42.265625 C-1.8125 42.1328125 -1.8125 42.1328125 -2.8125 41.1328125 C-2.91360353 38.1874568 -2.95219279 35.2660369 -2.9453125 32.3203125 C-2.94626923 31.43625732 -2.94722595 30.55220215 -2.94821167 29.64135742 C-2.94889351 27.76839121 -2.94703893 25.89542264 -2.94287109 24.02246094 C-2.93752289 21.14512862 -2.94281593 18.26795242 -2.94921875 15.390625 C-2.94855797 13.57552049 -2.94727681 11.76041607 -2.9453125 9.9453125 C-2.94733673 9.07865967 -2.94936096 8.21200684 -2.95144653 7.3190918 C-2.92336507 0.2142121 -2.92336507 0.2142121 0 0 Z " fill="#3593AA" transform="translate(25.8125,206.8671875)"/>
<path d="M0 0 C2.89267073 1.29671446 5.01837007 2.50192638 7 5 C7.36076355 7.33488464 7.36076355 7.33488464 7.34057617 10.11401367 C7.34034958 11.15486618 7.34012299 12.19571869 7.33988953 13.26811218 C7.32440567 14.39006485 7.30892181 15.51201752 7.29296875 16.66796875 C7.28872391 17.81791824 7.28447906 18.96786774 7.28010559 20.15266418 C7.26329189 23.83117941 7.22563377 27.50914992 7.1875 31.1875 C7.17245669 33.67902856 7.15876767 36.17056568 7.14648438 38.66210938 C7.11337953 44.77492593 7.06315305 50.88742405 7 57 C4.69 57 2.38 57 0 57 C0 42.48 0 27.96 0 13 C0.33 13 0.66 13 1 13 C1 14.65 1 16.3 1 18 C1.66 18 2.32 18 3 18 C2.67 14.7 2.34 11.4 2 8 C2.66 8 3.32 8 4 8 C3.34 7.01 2.68 6.02 2 5 C1.01 5.495 1.01 5.495 0 6 C0 4.02 0 2.04 0 0 Z " fill="#2F9AB0" transform="translate(241,190)"/>
<path d="M0 0 C0.53625 0.37125 1.0725 0.7425 1.625 1.125 C1.64965392 5.66397705 1.66783789 10.20291543 1.67993164 14.74194336 C1.6849714 16.28719766 1.6918032 17.83244716 1.70043945 19.37768555 C1.71252076 21.59425029 1.71823173 23.81075218 1.72265625 26.02734375 C1.72781754 26.7221434 1.73297882 27.41694305 1.73829651 28.13279724 C1.73849277 29.7972933 1.68689129 31.46165499 1.625 33.125 C1.13 33.62 1.13 33.62 0.625 34.125 C-2.345 34.125 -5.315 34.125 -8.375 34.125 C-8.375 23.235 -8.375 12.345 -8.375 1.125 C-2.375 -0.875 -2.375 -0.875 0 0 Z " fill="#35A19A" transform="translate(151.375,78.875)"/>
<path d="M0 0 C0 10.56 0 21.12 0 32 C-2.98212913 33.49106457 -5.71609658 33.11941467 -9 33 C-10 32 -10 32 -10.11352539 28.94897461 C-10.11336634 27.60008729 -10.10767612 26.25119386 -10.09765625 24.90234375 C-10.0962413 24.19348526 -10.09482635 23.48462677 -10.09336853 22.75428772 C-10.08775443 20.48198288 -10.07519963 18.20977525 -10.0625 15.9375 C-10.05748681 14.40039204 -10.05292359 12.86328255 -10.04882812 11.32617188 C-10.03778042 7.55074358 -10.02050641 3.77538829 -10 0 C-5.48095876 -2.32407835 -5.18825982 -2.07530393 0 0 Z " fill="#2FA89F" transform="translate(113,80)"/>
<path d="M0 0 C1.32 0.66 2.64 1.32 4 2 C4 16.85 4 31.7 4 47 C1.69 47 -0.62 47 -3 47 C-3.07425639 41.11013537 -3.12865268 35.22054434 -3.16479492 29.33032227 C-3.17986465 27.32734428 -3.2003241 25.3243992 -3.22631836 23.3215332 C-3.26278127 20.43953319 -3.27974461 17.55797016 -3.29296875 14.67578125 C-3.30845261 13.78288895 -3.32393646 12.88999664 -3.33988953 11.970047 C-3.3411958 7.1247383 -3.10725002 3.97455626 0 0 Z " fill="#2E99B0" transform="translate(171,200)"/>
<path d="M0 0 C6.49609906 -0.07597206 12.99208385 -0.12856672 19.48852539 -0.16479492 C21.69918092 -0.17989525 23.90980643 -0.20037709 26.12036133 -0.22631836 C29.29515993 -0.26264655 32.46956297 -0.27971384 35.64453125 -0.29296875 C36.63524124 -0.30845261 37.62595123 -0.32393646 38.64668274 -0.33988953 C39.56741074 -0.34011612 40.48813873 -0.34034271 41.43676758 -0.34057617 C42.2472908 -0.34723801 43.05781403 -0.35389984 43.89289856 -0.36076355 C46.52050218 0.08911684 47.38887514 0.91501604 49 3 C49.51171875 5.15625 49.51171875 5.15625 49.6875 7.5 C49.78611328 8.66015625 49.78611328 8.66015625 49.88671875 9.84375 C49.9769128 11.56054715 50 13.28083526 50 15 C49.34 15.33 48.68 15.66 48 16 C48 13.69 48 11.38 48 9 C47.01 9 46.02 9 45 9 C44.505 8.01 44.505 8.01 44 7 C29.15 6.67 14.3 6.34 -1 6 C-0.67 4.02 -0.34 2.04 0 0 Z " fill="#2BB097" transform="translate(157,33)"/>
<path d="M0 0 C1.65 0.99 3.3 1.98 5 3 C5 2.01 5 1.02 5 0 C5.66 0 6.32 0 7 0 C7 14.19 7 28.38 7 43 C5.02 43 3.04 43 1 43 C0.17846037 28.65239711 -0.13523642 14.37042994 0 0 Z " fill="#2DA99F" transform="translate(160,76)"/>
<path d="M0 0 C0.66 0.33 1.32 0.66 2 1 C1.67 15.85 1.34 30.7 1 46 C-0.98 46 -2.96 46 -5 46 C-5.07409532 40.07351426 -5.12857616 34.14729747 -5.16479492 28.22045898 C-5.17989179 26.20380966 -5.20037115 24.18719321 -5.22631836 22.1706543 C-5.26266211 19.27384329 -5.2797172 16.37746594 -5.29296875 13.48046875 C-5.30845261 12.57725388 -5.32393646 11.674039 -5.33988953 10.74345398 C-5.34011612 9.90280899 -5.34034271 9.062164 -5.34057617 8.19604492 C-5.34723801 7.45658127 -5.35389984 6.71711761 -5.36076355 5.95524597 C-4.89697644 3.44163873 -3.95921782 2.58847992 -2 1 C-1.34 0.67 -0.68 0.34 0 0 Z " fill="#2C99B0" transform="translate(86,201)"/>
<path d="M0 0 C0.66 0.66 1.32 1.32 2 2 C-0.64 1.67 -3.28 1.34 -6 1 C-6.33 1.66 -6.66 2.32 -7 3 C-9.58774327 4.51695295 -12.07471973 5.37315423 -15 6 C-15.33 5.34 -15.66 4.68 -16 4 C-18.31 5.98 -20.62 7.96 -23 10 C-22.67 10.99 -22.34 11.98 -22 13 C-20.576875 12.2575 -20.576875 12.2575 -19.125 11.5 C-16 10 -16 10 -14 10 C-14 9.34 -14 8.68 -14 8 C-9.9472484 7.01751476 -6.16138263 6.91840426 -2 7 C-2 7.66 -2 8.32 -2 9 C-1.01 9 -0.02 9 1 9 C0.67 9.99 0.34 10.98 0 12 C-0.99 11.34 -1.98 10.68 -3 10 C-6.04453491 9.51780847 -8.95291087 9.53715102 -12 10 C-14.50160818 11.87620613 -15.61945652 13.23891303 -17 16 C-17.17776132 18.9520035 -17.27764035 21.85872598 -17.3125 24.8125 C-17.34150391 25.62009766 -17.37050781 26.42769531 -17.40039062 27.25976562 C-17.44410184 31.3652574 -17.35376753 33.4454259 -15.09375 36.98828125 C-12.3933748 39.60445895 -12.3933748 39.60445895 -9 41 C-5.31796085 40.68873287 -5.31796085 40.68873287 -2 40 C-2 40.66 -2 41.32 -2 42 C-4.95664519 43.4783226 -7.74229737 43.06032783 -11 43 C-11 42.34 -11 41.68 -11 41 C-13.97 41.495 -13.97 41.495 -17 42 C-16.67 41.01 -16.34 40.02 -16 39 C-17.32 38.34 -18.64 37.68 -20 37 C-20 32.71 -20 28.42 -20 24 C-22.475 23.01 -22.475 23.01 -25 22 C-25.33 21.01 -25.66 20.02 -26 19 C-26.66 19 -27.32 19 -28 19 C-26.48429914 11.67411252 -24.55090106 6.46422387 -18.0625 2.1875 C-12.06398807 -1.24179634 -6.72580608 -1.51958291 0 0 Z " fill="#3EAA93" transform="translate(135,8)"/>
<path d="M0 0 C0.99 0.99 1.98 1.98 3 3 C2.525625 3.4125 2.05125 3.825 1.5625 4.25 C-0.16266518 6.182185 -0.56584875 7.48192275 -1 10 C-1.66 10 -2.32 10 -3 10 C-3.33 10.99 -3.66 11.98 -4 13 C-4.68707031 12.9278125 -5.37414062 12.855625 -6.08203125 12.78125 C-7.43361328 12.64203125 -7.43361328 12.64203125 -8.8125 12.5 C-9.70582031 12.4071875 -10.59914062 12.314375 -11.51953125 12.21875 C-14.08305099 11.95607599 -14.08305099 11.95607599 -17 12 C-16.34 12.33 -15.68 12.66 -15 13 C-15.33 13.99 -15.66 14.98 -16 16 C-17.9609375 16.9140625 -17.9609375 16.9140625 -20.375 17.625 C-21.16648438 17.86476562 -21.95796875 18.10453125 -22.7734375 18.3515625 C-23.50820312 18.56554687 -24.24296875 18.77953125 -25 19 C-25.99 19.33 -26.98 19.66 -28 20 C-28.33 18.35 -28.66 16.7 -29 15 C-27.576875 14.1646875 -27.576875 14.1646875 -26.125 13.3125 C-22.91121213 10.93429698 -22.04434882 9.75965574 -21 6 C-19.68 6 -18.36 6 -17 6 C-17 4.35 -17 2.7 -17 1 C-16.4328125 1.33515625 -15.865625 1.6703125 -15.28125 2.015625 C-12.67811861 3.13889403 -11.28509262 3.11244356 -8.5 2.75 C-7.7471875 2.66234375 -6.994375 2.5746875 -6.21875 2.484375 C-3.8898416 1.97595134 -2.07770284 1.15218067 0 0 Z " fill="#2CA0AA" transform="translate(219,166)"/>
<path d="M0 0 C3.37881092 1.9307491 4.63321216 2.97299406 5.9375 6.625 C5.958125 7.40875 5.97875 8.1925 6 9 C5.34 9.66 4.68 10.32 4 11 C4.495 11.99 4.495 11.99 5 13 C4.34 13.66 3.68 14.32 3 15 C2.01 14.67 1.02 14.34 0 14 C0 13.01 0 12.02 0 11 C-0.99 11 -1.98 11 -3 11 C-3 9.68 -3 8.36 -3 7 C-3.99 7 -4.98 7 -6 7 C-6 6.34 -6 5.68 -6 5 C-11.94 5.495 -11.94 5.495 -18 6 C-18 6.66 -18 7.32 -18 8 C-20.97 9.32 -23.94 10.64 -27 12 C-27.33 10.68 -27.66 9.36 -28 8 C-25.36 5.69 -22.72 3.38 -20 1 C-18.68 1.66 -17.36 2.32 -16 3 C-15.566875 2.525625 -15.13375 2.05125 -14.6875 1.5625 C-10.56042714 -2.25886376 -5.09057978 -1.04734417 0 0 Z " fill="#2DB596" transform="translate(139,10)"/>
<path d="M0 0 C0 2.62113708 -0.31292445 4.50935112 -1 7 C-1.639375 7.12375 -2.27875 7.2475 -2.9375 7.375 C-3.618125 7.58125 -4.29875 7.7875 -5 8 C-5.33 8.66 -5.66 9.32 -6 10 C-5.34 10 -4.68 10 -4 10 C-2.64560332 12.70879335 -2.93498549 15.00933268 -3 18 C-1.02 17.34 0.96 16.68 3 16 C2.67 13.69 2.34 11.38 2 9 C5.3 8.67 8.6 8.34 12 8 C11.67 9.32 11.34 10.64 11 12 C11.66 12.33 12.32 12.66 13 13 C10.61435923 12.42415568 8.33317216 11.77772405 6 11 C5.67 11.66 5.34 12.32 5 13 C5.99 14.485 5.99 14.485 7 16 C6.96856707 18.73990408 6.44521663 21.28417854 6 24 C5.34 24 4.68 24 4 24 C3.67 25.65 3.34 27.3 3 29 C1.02 29.33 -0.96 29.66 -3 30 C-3.33 29.01 -3.66 28.02 -4 27 C-2.35 27.33 -0.7 27.66 1 28 C0.67 26.02 0.34 24.04 0 22 C-1.41681634 22.31182069 -2.83344651 22.62448737 -4.25 22.9375 C-5.03890625 23.11152344 -5.8278125 23.28554687 -6.640625 23.46484375 C-8.76728673 23.9472157 -10.88442798 24.47110699 -13 25 C-13 29.95 -13 34.9 -13 40 C-12.01 40.33 -11.02 40.66 -10 41 C-11.65 40.67 -13.3 40.34 -15 40 C-15 34.72 -15 29.44 -15 24 C-7.375 21 -7.375 21 -4 21 C-5.19288233 16.08138585 -5.19288233 16.08138585 -7.6875 11.75 C-8.120625 11.1725 -8.55375 10.595 -9 10 C-7.90609426 6.71828278 -7.10279743 5.99777331 -4.5 3.875 C-3.8709375 3.35679687 -3.241875 2.83859375 -2.59375 2.3046875 C-2.0678125 1.87414062 -1.541875 1.44359375 -1 1 C-0.67 0.67 -0.34 0.34 0 0 Z " fill="#389EA6" transform="translate(102,140)"/>
<path d="M0 0 C0.92153366 -0.01283524 1.84306732 -0.02567047 2.79252625 -0.03889465 C4.29865227 -0.04997505 4.29865227 -0.04997505 5.83520508 -0.0612793 C6.8627742 -0.06935104 7.89034332 -0.07742279 8.9490509 -0.08573914 C11.13056745 -0.09960136 13.31210588 -0.11031389 15.49365234 -0.11816406 C18.82342057 -0.13533654 22.15218584 -0.17919937 25.48168945 -0.22338867 C27.59952068 -0.23351867 29.71736037 -0.24203381 31.83520508 -0.2487793 C32.82916794 -0.26628738 33.8231308 -0.28379547 34.84721375 -0.30183411 C40.76375738 -0.28336686 44.16747551 0.21881505 48.66723633 4.17700195 C49.16223633 5.16700195 49.16223633 5.16700195 49.66723633 6.17700195 C46.66723633 5.17700195 43.66723633 4.17700195 40.66723633 3.17700195 C39.21016716 3.06350347 37.74878674 3.0009872 36.28759766 2.97167969 C34.96656792 2.94176186 34.96656792 2.94176186 33.61885071 2.91123962 C32.67188828 2.89452713 31.72492584 2.87781464 30.74926758 2.8605957 C29.77688644 2.83981461 28.80450531 2.81903351 27.80265808 2.79762268 C24.69508968 2.73221447 21.58743648 2.67328266 18.47973633 2.61450195 C16.37360775 2.57130844 14.26748776 2.52769388 12.16137695 2.48364258 C6.99675042 2.37654197 1.83203855 2.27524977 -3.33276367 2.17700195 C-3.33276367 3.82700195 -3.33276367 5.47700195 -3.33276367 7.17700195 C18.44723633 7.67200195 18.44723633 7.67200195 40.66723633 8.17700195 C41.16223633 9.16700195 41.16223633 9.16700195 41.66723633 10.17700195 C26.15723633 10.17700195 10.64723633 10.17700195 -5.33276367 10.17700195 C-5.33276367 0.06444238 -5.33276367 0.06444238 0 0 Z " fill="#48A593" transform="translate(160.332763671875,30.822998046875)"/>
<path d="M0 0 C0.99 0.66 1.98 1.32 3 2 C3.66 1.67 4.32 1.34 5 1 C5.33 2.65 5.66 4.3 6 6 C6.66 5.67 7.32 5.34 8 5 C8.02526787 12.10244999 8.04283201 19.20488848 8.05493164 26.30737305 C8.05997349 28.72567172 8.06680678 31.14396733 8.07543945 33.56225586 C8.08751157 37.02979283 8.09322963 40.49728966 8.09765625 43.96484375 C8.10281754 45.05337143 8.10797882 46.14189911 8.11329651 47.26341248 C8.11337204 48.26437454 8.11344757 49.26533661 8.11352539 50.29663086 C8.115746 51.18265488 8.11796661 52.06867889 8.12025452 52.98155212 C8 55 8 55 7 56 C5.1875 56.1328125 5.1875 56.1328125 3 56.125 C2.278125 56.12757813 1.55625 56.13015625 0.8125 56.1328125 C-1 56 -1 56 -2 55 C-2.10346998 53.53328382 -2.13850603 52.06165438 -2.14526367 50.59130859 C-2.15164352 49.65298187 -2.15802338 48.71465515 -2.16459656 47.74789429 C-2.16570938 46.72507355 -2.1668222 45.70225281 -2.16796875 44.6484375 C-2.17129715 43.60104401 -2.17462555 42.55365051 -2.17805481 41.47451782 C-2.18313092 39.25010621 -2.18546293 37.02568693 -2.18530273 34.80126953 C-2.18747733 31.41035189 -2.2055929 28.01976574 -2.22460938 24.62890625 C-2.22754559 22.46875111 -2.22952886 20.30859443 -2.23046875 18.1484375 C-2.23765427 17.13776215 -2.24483978 16.12708679 -2.25224304 15.08578491 C-2.23479425 9.65689698 -1.80421394 5.13152946 0 0 Z M2 7 C-1.68421583 11.71256673 -1.391934 15.96884945 -1.29296875 21.67578125 C-1.28872391 22.6009404 -1.28447906 23.52609955 -1.28010559 24.47929382 C-1.26335993 27.4239963 -1.22571522 30.3680056 -1.1875 33.3125 C-1.17244785 35.31314113 -1.15876037 37.31379303 -1.14648438 39.31445312 C-1.11346983 44.20990107 -1.06171575 49.10483315 -1 54 C1.31 54 3.62 54 6 54 C6 39.15 6 24.3 6 9 C4.68 8.34 3.36 7.68 2 7 Z " fill="#4090A1" transform="translate(169,193)"/>
<path d="M0 0 C0.33 0 0.66 0 1 0 C1 25.74 1 51.48 1 78 C3.31 78 5.62 78 8 78 C8.33 52.59 8.66 27.18 9 1 C9.33 1 9.66 1 10 1 C10 27.07 10 53.14 10 80 C7 81 7 81 0 79 C0 52.93 0 26.86 0 0 Z " fill="#4E9A92" transform="translate(43,41)"/>
<path d="M0 0 C0.66 0.33 1.32 0.66 2 1 C1.82984375 1.66 1.6596875 2.32 1.484375 3 C0.77960048 7.36505508 1.09852566 11.71946962 1.390625 16.1171875 C1.51558824 20.25659477 1.18948652 21.77402849 -1.515625 25 C-2.74539062 25.99 -2.74539062 25.99 -4 27 C-6.57453225 24.7612763 -7.45859315 23.3578162 -8 20 C-7.98882238 17.2670727 -7.91075099 14.59802433 -7.75 11.875 C-7.72292969 11.14667969 -7.69585938 10.41835937 -7.66796875 9.66796875 C-7.546875 7.5546875 -7.546875 7.5546875 -7 4 C-6.01 3.34 -5.02 2.68 -4 2 C-4 2.66 -4 3.32 -4 4 C-3.34 3.67 -2.68 3.34 -2 3 C-2 2.34 -2 1.68 -2 1 C-1.34 0.67 -0.68 0.34 0 0 Z " fill="#2FA4A9" transform="translate(35,140)"/>
<path d="M0 0 C3 1 3 1 4 3 C4.09016377 4.60354452 4.11756075 6.21082222 4.11352539 7.81689453 C4.11344986 8.81778107 4.11337433 9.8186676 4.11329651 10.84988403 C4.10813522 11.93325043 4.10297394 13.01661682 4.09765625 14.1328125 C4.0962413 15.23978485 4.09482635 16.3467572 4.09336853 17.48727417 C4.08775772 21.03320993 4.07520337 24.57908323 4.0625 28.125 C4.05748639 30.52473867 4.05292325 32.92447833 4.04882812 35.32421875 C4.03778478 41.21616725 4.0210361 47.10807916 4 53 C6.31 53 8.62 53 11 53 C11 36.17 11 19.34 11 2 C13 4 13 4 13.24723816 6.13197327 C13.24510063 7.45315407 13.24510063 7.45315407 13.24291992 8.80102539 C13.24599655 9.79868423 13.24907318 10.79634308 13.25224304 11.82423401 C13.24505753 12.90446335 13.23787201 13.98469269 13.23046875 15.09765625 C13.22978142 16.75455727 13.22978142 16.75455727 13.2290802 18.44493103 C13.22605547 20.78271558 13.21816264 23.12049808 13.20581055 25.45825195 C13.18755834 29.05101603 13.18530078 32.64352254 13.18554688 36.23632812 C13.18063174 38.50260641 13.17480344 40.76888294 13.16796875 43.03515625 C13.16685593 44.11740982 13.1657431 45.19966339 13.16459656 46.31471252 C13.15821671 47.30921921 13.15183685 48.30372589 13.14526367 49.32836914 C13.14145187 50.20836075 13.13764008 51.08835236 13.13371277 51.99501038 C13 54 13 54 12 55 C10.1875 55.1328125 10.1875 55.1328125 8 55.125 C7.278125 55.12757813 6.55625 55.13015625 5.8125 55.1328125 C4 55 4 55 3 54 C2.88779611 52.45635975 2.84325979 50.90772858 2.82641602 49.36010742 C2.81292618 48.37205612 2.79943634 47.38400482 2.78553772 46.36601257 C2.77509933 45.29003311 2.76466095 44.21405365 2.75390625 43.10546875 C2.72096437 40.84830346 2.68775278 38.5911421 2.65429688 36.33398438 C2.60687367 32.75906109 2.56246324 29.18415335 2.52319336 25.60913086 C2.48350742 22.17023735 2.43194729 18.73167853 2.37890625 15.29296875 C2.3704921 14.22306198 2.36207794 13.15315521 2.35340881 12.05082703 C2.33676682 11.05331924 2.32012482 10.05581146 2.30297852 9.02807617 C2.29267105 8.15173019 2.28236359 7.27538422 2.27174377 6.3724823 C1.98189836 3.84196212 1.27309739 2.18754149 0 0 Z " fill="#448E9F" transform="translate(76,194)"/>
<path d="M0 0 C2.77760808 2.39884334 3.89570235 4.50777665 5 8 C5.18861498 10.73214352 5.27999165 13.33575886 5.25 16.0625 C5.25773438 16.76955078 5.26546875 17.47660156 5.2734375 18.20507812 C5.25816884 22.27036012 4.86682936 24.26634128 3 28 C2.67 24.04 2.34 20.08 2 16 C0.68 15.67 -0.64 15.34 -2 15 C-2.02578125 15.70125 -2.0515625 16.4025 -2.078125 17.125 C-2.47468327 23.75833827 -3.64384714 28.26206125 -7 34 C-7.99 34 -8.98 34 -10 34 C-9.56171017 31.54557697 -9.21453558 30.22605795 -7.47265625 28.390625 C-5.31743957 24.89197087 -5.64199055 21.47609771 -5.75 17.5 C-5.75773438 16.36111328 -5.75773438 16.36111328 -5.765625 15.19921875 C-5.81541989 11.64510822 -6.04892568 8.41929325 -7 5 C-6.34 5 -5.68 5 -5 5 C-4.01 6.485 -4.01 6.485 -3 8 C-2.34 7.67 -1.68 7.34 -1 7 C-1 6.01 -1 5.02 -1 4 C-0.6937566 2.66018514 -0.36548445 1.32488113 0 0 Z " fill="#3FA893" transform="translate(144,16)"/>
<path d="M0 0 C0.66 0 1.32 0 2 0 C2.65520257 14.34126909 3.16502485 28.64283833 3 43 C4.98 43 6.96 43 9 43 C9 28.81 9 14.62 9 0 C11.25028172 4.50056344 11.25028172 4.50056344 11.24291992 8.11010742 C11.24599655 8.90740768 11.24907318 9.70470795 11.25224304 10.52616882 C11.24505753 11.3773378 11.23787201 12.22850677 11.23046875 13.10546875 C11.22978142 14.42518425 11.22978142 14.42518425 11.2290802 15.77156067 C11.22606426 17.62661085 11.21819767 19.48165865 11.20581055 21.33666992 C11.18750046 24.18742761 11.18530131 27.0378614 11.18554688 29.88867188 C11.18063353 31.690107 11.17480602 33.4915399 11.16796875 35.29296875 C11.16685593 36.15021042 11.1657431 37.00745209 11.16459656 37.89067078 C11.11606391 43.88393609 11.11606391 43.88393609 10 45 C8.1875 45.1328125 8.1875 45.1328125 6 45.125 C5.278125 45.12757812 4.55625 45.13015625 3.8125 45.1328125 C2 45 2 45 1 44 C0.87802192 42.61949142 0.82231101 41.23302353 0.79467773 39.84741211 C0.77473251 38.96657455 0.75478729 38.085737 0.73423767 37.1782074 C0.70916893 35.74227989 0.70916893 35.74227989 0.68359375 34.27734375 C0.66281265 33.30213272 0.64203156 32.32692169 0.62062073 31.32215881 C0.55501588 28.1940137 0.49618972 25.06578178 0.4375 21.9375 C0.39432517 19.8222565 0.35071123 17.70702191 0.30664062 15.59179688 C0.19932345 10.39462413 0.0975778 5.19736423 0 0 Z " fill="#419895" transform="translate(158,76)"/>
<path d="M0 0 C0.33 0 0.66 0 1 0 C1.02312428 9.89189376 1.04091552 19.78378114 1.05181217 29.67569637 C1.05704082 34.2684264 1.06413812 38.861138 1.07543945 43.45385742 C1.086269 47.88233688 1.09227698 52.31079856 1.09487724 56.73929024 C1.09673137 58.43265628 1.10035175 60.12602129 1.10573006 61.81937981 C1.1129414 64.18291232 1.1139909 66.54637045 1.11352539 68.90991211 C1.11712067 69.61697296 1.12071594 70.32403381 1.12442017 71.05252075 C1.11405216 75.88594784 1.11405216 75.88594784 0 77 C-2.67058851 77.14115161 -5.32432238 77.04247107 -8 77 C-8 76.01 -8 75.02 -8 74 C-5.69 74.33 -3.38 74.66 -1 75 C-1.00523682 74.00709961 -1.01047363 73.01419922 -1.01586914 71.99121094 C-1.13083847 47.97351788 -0.82042689 24.00403262 0 0 Z " fill="#40958C" transform="translate(212,44)"/>
<path d="M0 0 C3.25543229 0.34879632 4.01873107 1.02133261 6.25 3.5625 C6.8275 4.366875 7.405 5.17125 8 6 C3.25 9 3.25 9 1 9 C1.66 11.31 2.32 13.62 3 16 C1 18 1 18 -1.625 18.125 C-2.40875 18.08375 -3.1925 18.0425 -4 18 C-4.33 15.36 -4.66 12.72 -5 10 C-5.66 10 -6.32 10 -7 10 C-6.67 9.01 -6.34 8.02 -6 7 C-5.01 6.67 -4.02 6.34 -3 6 C-1.83333333 4.08333333 -1.83333333 4.08333333 -1 2 C-0.67 1.34 -0.34 0.68 0 0 Z " fill="#2DA2A5" transform="translate(103,140)"/>
<path d="M0 0 C0 10.56 0 21.12 0 32 C-2.98212913 33.49106457 -5.71609658 33.11941467 -9 33 C-10 32 -10 32 -10.11352539 28.94897461 C-10.11336634 27.60008729 -10.10767612 26.25119386 -10.09765625 24.90234375 C-10.0962413 24.19348526 -10.09482635 23.48462677 -10.09336853 22.75428772 C-10.08775443 20.48198288 -10.07519963 18.20977525 -10.0625 15.9375 C-10.05748681 14.40039204 -10.05292359 12.86328255 -10.04882812 11.32617188 C-10.03778042 7.55074358 -10.02050641 3.77538829 -10 0 C-5.48095876 -2.32407835 -5.18825982 -2.07530393 0 0 Z M-9 1 C-9.08783542 3.21855264 -9.10694609 5.43988496 -9.09765625 7.66015625 C-9.0962413 8.32462265 -9.09482635 8.98908905 -9.09336853 9.6736908 C-9.08775518 11.80333899 -9.07520054 13.93288339 -9.0625 16.0625 C-9.05748671 17.50325369 -9.05292351 18.94400903 -9.04882812 20.38476562 C-9.03778145 23.92321102 -9.02050792 27.46159539 -9 31 C-6.69 31 -4.38 31 -2 31 C-1.97534378 26.74585377 -1.95716101 22.49174502 -1.94506836 18.23754883 C-1.94002899 16.78929927 -1.93319747 15.34105483 -1.92456055 13.89282227 C-1.91247753 11.81525412 -1.90676789 9.73775303 -1.90234375 7.66015625 C-1.89710693 6.40855713 -1.89187012 5.15695801 -1.88647461 3.86743164 C-1.67112965 1.10267706 -1.67112965 1.10267706 -3 0 C-6.28894893 -0.40628967 -6.28894893 -0.40628967 -9 1 Z " fill="#459996" transform="translate(113,80)"/>
<path d="M0 0 C2.05078125 0.03255208 4.1015625 0.06510417 6.15234375 0.09765625 C6.48234375 0.75765625 6.81234375 1.41765625 7.15234375 2.09765625 C4.18234375 2.09765625 1.21234375 2.09765625 -1.84765625 2.09765625 C-1.76386719 2.74605469 -1.68007812 3.39445313 -1.59375 4.0625 C-0.34698104 16.07251495 -1.22753193 28.06780684 -1.84765625 40.09765625 C0.46234375 40.09765625 2.77234375 40.09765625 5.15234375 40.09765625 C5.48234375 29.20765625 5.81234375 18.31765625 6.15234375 7.09765625 C6.48234375 7.09765625 6.81234375 7.09765625 7.15234375 7.09765625 C7.17699565 11.92146427 7.19518068 16.74523592 7.20727539 21.5690918 C7.21231549 23.21135089 7.21914753 24.85360548 7.2277832 26.49584961 C7.23986301 28.85141104 7.24557514 31.20691334 7.25 33.5625 C7.25516129 34.30104721 7.26032257 35.03959442 7.26564026 35.80052185 C7.26583625 37.56663713 7.21429094 39.33262771 7.15234375 41.09765625 C6.15234375 42.09765625 6.15234375 42.09765625 4.33984375 42.23046875 C3.61796875 42.22789062 2.89609375 42.2253125 2.15234375 42.22265625 C1.43046875 42.22523438 0.70859375 42.2278125 -0.03515625 42.23046875 C-1.84765625 42.09765625 -1.84765625 42.09765625 -2.84765625 41.09765625 C-2.94875978 38.15230055 -2.98734904 35.23088065 -2.98046875 32.28515625 C-2.98142548 31.40110107 -2.9823822 30.5170459 -2.98336792 29.60620117 C-2.98404976 27.73323496 -2.98219518 25.86026639 -2.97802734 23.98730469 C-2.97267914 21.10997237 -2.97797218 18.23279617 -2.984375 15.35546875 C-2.98371422 13.54036424 -2.98243306 11.72525982 -2.98046875 9.91015625 C-2.98249298 9.04350342 -2.98451721 8.17685059 -2.98660278 7.28393555 C-2.95843164 0.15636531 -2.95843164 0.15636531 0 0 Z " fill="#468A9D" transform="translate(65.84765625,206.90234375)"/>
<path d="M0 0 C5.97873264 0.11935764 5.97873264 0.11935764 7.08984375 1.23046875 C7.19094728 4.17582445 7.22953654 7.09724435 7.22265625 10.04296875 C7.22361298 10.92702393 7.2245697 11.8110791 7.22555542 12.72192383 C7.22623726 14.59489004 7.22438268 16.46785861 7.22021484 18.34082031 C7.21486664 21.21815263 7.22015968 24.09532883 7.2265625 26.97265625 C7.22590172 28.78776076 7.22462056 30.60286518 7.22265625 32.41796875 C7.22468048 33.28462158 7.22670471 34.15127441 7.22879028 35.04418945 C7.20479384 41.11551866 7.20479384 41.11551866 6.08984375 42.23046875 C4.27734375 42.36328125 4.27734375 42.36328125 2.08984375 42.35546875 C1.36796875 42.35804688 0.64609375 42.360625 -0.09765625 42.36328125 C-1.91015625 42.23046875 -1.91015625 42.23046875 -2.91015625 41.23046875 C-3.09524678 38.37138244 -3.21869165 35.53451603 -3.296875 32.671875 C-3.32239944 31.81238754 -3.34792389 30.95290009 -3.3742218 30.06736755 C-3.42632294 28.24574937 -3.47573851 26.42405272 -3.52270508 24.60229492 C-3.5972555 21.80798978 -3.68788678 19.014501 -3.77929688 16.22070312 C-3.82781278 14.454454 -3.87537076 12.68817824 -3.921875 10.921875 C-3.9509343 10.08225723 -3.97999359 9.24263947 -4.00993347 8.37757874 C-4.05458756 6.32875873 -3.99177865 4.27814919 -3.91015625 2.23046875 C-1.91015625 0.23046875 -1.91015625 0.23046875 0 0 Z M-0.91015625 2.23046875 C-2.17036224 6.10807378 -2.05429997 9.99344102 -2.04296875 14.0234375 C-2.04392548 14.77007156 -2.0448822 15.51670563 -2.04586792 16.28596497 C-2.04654669 17.85853154 -2.04471354 19.43110096 -2.04052734 21.00366211 C-2.03515213 23.41982231 -2.04049409 25.83579852 -2.046875 28.25195312 C-2.04621461 29.77994833 -2.04493426 31.30794342 -2.04296875 32.8359375 C-2.04499298 33.56193649 -2.04701721 34.28793549 -2.04910278 35.03593445 C-2.33360125 38.41947762 -2.33360125 38.41947762 -0.91015625 41.23046875 C2.08984375 41.39713542 2.08984375 41.39713542 5.08984375 41.23046875 C6.50710611 40.04136624 6.50710611 40.04136624 6.20336914 36.62866211 C6.20321 35.02587019 6.19751438 33.42307315 6.1875 31.8203125 C6.18608505 30.97827774 6.1846701 30.13624298 6.18321228 29.26869202 C6.17759638 26.5684154 6.16504123 23.86822047 6.15234375 21.16796875 C6.1473308 19.34179807 6.14276754 17.51562609 6.13867188 15.68945312 C6.12762179 11.20309333 6.11034654 6.71679491 6.08984375 2.23046875 C3.77984375 2.23046875 1.46984375 2.23046875 -0.91015625 2.23046875 Z " fill="#49899D" transform="translate(185.91015625,206.76953125)"/>
<path d="M0 0 C5.10714286 1.16071429 5.10714286 1.16071429 7 4 C7.26641894 7.72986522 7.1845131 10.44646071 6 14 C3.69 14 1.38 14 -1 14 C-2.60279613 11.38491158 -3.15622322 9.68190867 -2.46484375 6.6640625 C-1.70194637 4.41440232 -0.89207691 2.20141561 0 0 Z " fill="#2D9DAE" transform="translate(130,197)"/>
<path d="M0 0 C2.79256219 0.11361602 5.58344118 0.2403589 8.375 0.375 C9.1690625 0.4059375 9.963125 0.436875 10.78125 0.46875 C16.7734375 0.7734375 16.7734375 0.7734375 19 3 C18.38125 3.268125 17.7625 3.53625 17.125 3.8125 C14.7004767 4.95556848 14.7004767 4.95556848 13 8 C13 8.66 13 9.32 13 10 C11.78183594 10.06058594 10.56367188 10.12117188 9.30859375 10.18359375 C7.68488723 10.26806403 6.06118978 10.35270872 4.4375 10.4375 C3.23770508 10.49647461 3.23770508 10.49647461 2.01367188 10.55664062 C-2.71371506 10.80748156 -7.32476901 11.25321814 -12 12 C-12 11.34 -12 10.68 -12 10 C-10.75863281 9.79503906 -9.51726562 9.59007813 -8.23828125 9.37890625 C-6.59634697 9.10681428 -4.95442028 8.83467645 -3.3125 8.5625 C-2.49587891 8.42779297 -1.67925781 8.29308594 -0.83789062 8.15429688 C3.12218022 7.49695718 7.07039331 6.82433704 11 6 C9.69696706 3.39393412 8.68319019 3.08777981 6 2 C4.00889599 1.61709538 2.00899487 1.27395385 0 1 C0 0.67 0 0.34 0 0 Z " fill="#3C9D9C" transform="translate(124,115)"/>
<path d="M0 0 C0.99 0.33 1.98 0.66 3 1 C3.33 1.99 3.66 2.98 4 4 C2.68 4.33 1.36 4.66 0 5 C0.20625 5.721875 0.4125 6.44375 0.625 7.1875 C1.07108001 10.53310006 0.6574191 12.07978539 -1 15 C-3.125 16.3125 -3.125 16.3125 -5 17 C-5.33 15.35 -5.66 13.7 -6 12 C-6.99 12 -7.98 12 -9 12 C-8.51113445 7.71872287 -7.38573844 5.90797457 -4.125 3.125 C-3.42632812 2.50882813 -2.72765625 1.89265625 -2.0078125 1.2578125 C-1.34523437 0.84273437 -0.68265625 0.42765625 0 0 Z M-5 9 C-4 11 -4 11 -4 11 Z " fill="#3599A8" transform="translate(179,183)"/>
<path d="M0 0 C0.33 0 0.66 0 1 0 C1 5.94 1 11.88 1 18 C0.01 18.33 -0.98 18.66 -2 19 C-2.66 19.66 -3.32 20.32 -4 21 C-4.99 21 -5.98 21 -7 21 C-6.69177379 18.7077546 -6.37829126 16.41621545 -6.0625 14.125 C-5.88847656 12.84882812 -5.71445313 11.57265625 -5.53515625 10.2578125 C-5 7 -5 7 -4 5 C-2.68 5.33 -1.36 5.66 0 6 C0 4.02 0 2.04 0 0 Z " fill="#2AB198" transform="translate(146,26)"/>
<path d="M0 0 C0.66 0 1.32 0 2 0 C3.22329074 3.66987221 2.88021006 6.33967822 2.5625 10.1875 C2.46066406 11.45980469 2.35882813 12.73210937 2.25390625 14.04296875 C2.12822266 15.50669922 2.12822266 15.50669922 2 17 C1.01 17.33 0.02 17.66 -1 18 C-3 17 -3 17 -4 14 C-4.06802967 12.27204648 -4.08495645 10.54164635 -4.0625 8.8125 C-4.05347656 7.91144531 -4.04445312 7.01039063 -4.03515625 6.08203125 C-4.02355469 5.39496094 -4.01195312 4.70789063 -4 4 C-3.34 4 -2.68 4 -2 4 C-1.34 2.68 -0.68 1.36 0 0 Z " fill="#2BA4A8" transform="translate(225,147)"/>
<path d="M0 0 C3.0831351 1.19899698 6.06279492 2.47700477 9 4 C9 4.66 9 5.32 9 6 C11.475 6.99 11.475 6.99 14 8 C14 10 14 12 14 14 C11.125 13.8125 11.125 13.8125 8 13 C7.28272222 11.35448038 6.61674772 9.68577711 6 8 C3.50965614 6.70339566 3.50965614 6.70339566 1 6 C0 5 0 5 -0.0625 2.4375 C-0.041875 1.633125 -0.02125 0.82875 0 0 Z " fill="#2EA0AC" transform="translate(113,173)"/>
<path d="M0 0 C0.33 0 0.66 0 1 0 C1 26.07 1 52.14 1 79 C-0.485 79.495 -0.485 79.495 -2 80 C-1.67 79.01 -1.34 78.02 -1 77 C-0.88061589 74.52206304 -0.81479492 72.07001924 -0.79467773 69.59106445 C-0.78477814 68.83960144 -0.77487854 68.08813843 -0.76467896 67.31390381 C-0.73309504 64.83039499 -0.70831884 62.34686704 -0.68359375 59.86328125 C-0.66302154 58.14120487 -0.64202499 56.4191335 -0.62062073 54.69706726 C-0.56542766 50.16466334 -0.51600618 45.63221406 -0.46777344 41.09973145 C-0.41753824 36.47464969 -0.36186271 31.8496338 -0.30664062 27.22460938 C-0.19909287 18.14979586 -0.09764036 9.07492514 0 0 Z " fill="#4B918C" transform="translate(52,42)"/>
<path d="M0 0 C1.41973403 2.65017018 2.35828704 5.06645502 3 8 C3.185625 8.7425 3.37125 9.485 3.5625 10.25 C3.7790625 11.11625 3.7790625 11.11625 4 12 C6.31 12.33 8.62 12.66 11 13 C11.33 12.01 11.66 11.02 12 10 C11.67 11.65 11.34 13.3 11 15 C5.72 15 0.44 15 -5 15 C-5.33 13.35 -5.66 11.7 -6 10 C-5.34 10.66 -4.68 11.32 -4 12 C-1.93125966 12.6425235 -1.93125966 12.6425235 0 13 C-0.9977758 10.00667261 -1.7522025 9.05233685 -4 7 C-3.01 6.67 -2.02 6.34 -1 6 C-0.67 4.02 -0.34 2.04 0 0 Z " fill="#2F97A5" transform="translate(125,198)"/>
<path d="M0 0 C0 4.29 0 8.58 0 13 C-6.75 13.125 -6.75 13.125 -9 12 C-6.70434783 3.70434783 -6.70434783 3.70434783 -3.9375 0.9375 C-2 0 -2 0 0 0 Z " fill="#2DA8A4" transform="translate(211,106)"/>
<path d="M0 0 C7.50769231 0.49230769 7.50769231 0.49230769 10 3.0625 C10.33 3.701875 10.66 4.34125 11 5 C8.98532343 7.31314718 7.3913245 8.82942266 4.5625 10.0625 C2 10 2 10 -0.8125 7.5625 C-1.534375 6.716875 -2.25625 5.87125 -3 5 C-2.67 4.01 -2.34 3.02 -2 2 C-1.34 2.33 -0.68 2.66 0 3 C0 2.01 0 1.02 0 0 Z " fill="#2E9EB0" transform="translate(103,195)"/>
<path d="M0 0 C0.99 0.66 1.98 1.32 3 2 C3 3.32 3 4.64 3 6 C4.32 6.66 5.64 7.32 7 8 C7 6.68 7 5.36 7 4 C10.76624671 2.74458443 12.37188934 3.62938042 16 5 C13.35261084 6.4606285 12.10551666 7 9 7 C9 7.66 9 8.32 9 9 C7.3767313 9.6708712 5.75132422 10.33657029 4.125 11 C3.22007813 11.37125 2.31515625 11.7425 1.3828125 12.125 C-1 13 -1 13 -3 13 C-2.67 12.01 -2.34 11.02 -2 10 C-1.01 10 -0.02 10 1 10 C1 9.34 1 8.68 1 8 C0.34 7.67 -0.32 7.34 -1 7 C-1.33 6.34 -1.66 5.68 -2 5 C-2.33 5.33 -2.66 5.66 -3 6 C-4.66617115 6.04063832 -6.33388095 6.042721 -8 6 C-5.61426621 4.10786631 -3.92824652 2.97608217 -1 2 C-0.67 1.34 -0.34 0.68 0 0 Z " fill="#3BA898" transform="translate(114,55)"/>
<path d="M0 0 C0.45375 0.495 0.9075 0.99 1.375 1.5 C2.87635519 3.22609337 2.87635519 3.22609337 5 3 C5.33 4.32 5.66 5.64 6 7 C6.66 6.01 7.32 5.02 8 4 C8.33 6.97 8.66 9.94 9 13 C2.25 10.125 2.25 10.125 0 9 C0 10.65 0 12.3 0 14 C-1.5625 12.5625 -1.5625 12.5625 -3 10 C-3.0644328 6.92870301 -2.80112216 3.96957314 -2 1 C-1.34 0.67 -0.68 0.34 0 0 Z " fill="#3A97A0" transform="translate(113,164)"/>
<path d="M0 0 C-0.165 0.78375 -0.33 1.5675 -0.5 2.375 C-1.0623707 4.88208039 -1.0623707 4.88208039 -1 7 C0.32 7.33 1.64 7.66 3 8 C2.34 8 1.68 8 1 8 C0.67 8.66 0.34 9.32 0 10 C-2.2572026 11.48314991 -4.6261783 12.70518817 -7 14 C-7.80967438 11.08517222 -8.21845993 9.53886783 -7.0625 6.6875 C-6.711875 6.130625 -6.36125 5.57375 -6 5 C-7.98 5.66 -9.96 6.32 -12 7 C-4.83464567 -2.41732283 -4.83464567 -2.41732283 0 0 Z " fill="#369B9B" transform="translate(104,122)"/>
<path d="M0 0 C1.75 2 1.75 2 3 4 C-1.76971162 7.93501209 -1.76971162 7.93501209 -5.14453125 8.11328125 C-7.3125 7.875 -7.3125 7.875 -11 7 C-11.33 6.34 -11.66 5.68 -12 5 C-8.9213239 0.38198585 -5.38443111 0 0 0 Z " fill="#2DA0AD" transform="translate(36,179)"/>
<path d="M0 0 C0.99 1.32 1.98 2.64 3 4 C1.576875 4.5259375 1.576875 4.5259375 0.125 5.0625 C-3.34336062 6.7714341 -3.34336062 6.7714341 -4.375 10.6875 C-4.58125 11.780625 -4.7875 12.87375 -5 14 C-5.66 13.67 -6.32 13.34 -7 13 C-7 11.68 -7 10.36 -7 9 C-7.99 9.33 -8.98 9.66 -10 10 C-10.33 8.68 -10.66 7.36 -11 6 C-7.42245507 3.7903399 -3.77805964 1.84509889 0 0 Z " fill="#2C9FA6" transform="translate(125,158)"/>
<path d="M0 0 C2.475 0.99 2.475 0.99 5 2 C5 7.28 5 12.56 5 18 C-3.03571429 21.34821429 -3.03571429 21.34821429 -7 20 C-6.01 18.68 -5.02 17.36 -4 16 C0.75 16.875 0.75 16.875 3 18 C2.67 12.72 2.34 7.44 2 2 C1.34 2 0.68 2 0 2 C0 1.34 0 0.68 0 0 Z " fill="#3C969B" transform="translate(164,162)"/>
<path d="M0 0 C-0.125 1.8125 -0.125 1.8125 -1 4 C-4.0625 5.75 -4.0625 5.75 -7 7 C-7 7.66 -7 8.32 -7 9 C-9 10.625 -9 10.625 -11 12 C-11 11.34 -11 10.68 -11 10 C-11.66 9.67 -12.32 9.34 -13 9 C-10.03162241 1.36702905 -8.25426998 -0.31148189 0 0 Z " fill="#2FADA0" transform="translate(100,70)"/>
<path d="M0 0 C6.83782864 2.54835743 11.77082426 5.92755705 17 11 C16.67 11.66 16.34 12.32 16 13 C14.02 11.35 12.04 9.7 10 8 C9.29875 8.515625 8.5975 9.03125 7.875 9.5625 C4.30524015 11.34737993 2.80045302 11.02928936 -1 10 C-2.68375165 9.37774395 -4.35767228 8.72455635 -6 8 C-6 7.67 -6 7.34 -6 7 C-2.37 7.33 1.26 7.66 5 8 C4.49019039 3.96621634 4.49019039 3.96621634 1.9375 2.75 C1.298125 2.5025 0.65875 2.255 0 2 C0 1.34 0 0.68 0 0 Z " fill="#3B9CA6" transform="translate(229,180)"/>
<path d="M0 0 C4.30764815 1.56641751 8.06171464 3.68336156 12 6 C8.52176885 7.15941038 6.54104422 6.70820884 3 6 C2.67 5.01 2.34 4.02 2 3 C1.34 3 0.68 3 0 3 C-0.33 4.98 -0.66 6.96 -1 9 C1.97 9.495 1.97 9.495 5 10 C5.33 10.99 5.66 11.98 6 13 C2.08788267 11.84414715 -0.8745041 10.64465038 -4 8 C-2.66666667 5.33333333 -1.33333333 2.66666667 0 0 Z " fill="#4192A2" transform="translate(97,209)"/>
<path d="M0 0 C1.92014854 3.84029708 0.94159149 8.99860571 0.78515625 13.25976562 C0.69872855 18.05650317 0.93921085 21.04981924 4 25 C3.236875 24.773125 2.47375 24.54625 1.6875 24.3125 C0.800625 24.209375 -0.08625 24.10625 -1 24 C-2.64594139 25.39588754 -2.64594139 25.39588754 -4 27 C-4.99 27 -5.98 27 -7 27 C-7.33 26.01 -7.66 25.02 -8 24 C-7.38125 23.896875 -6.7625 23.79375 -6.125 23.6875 C-3.63473516 23.12474627 -3.63473516 23.12474627 -2 20 C-1.88391396 16.6081111 -1.95613716 13.28079046 -2.078125 9.89257812 C-2.16314304 6.07030862 -2.16473719 3.23864978 0 0 Z " fill="#3F969C" transform="translate(37,142)"/>
<path d="M0 0 C5.41836363 4.46218182 8.53076775 10.48345475 11 17 C10.67 17.99 10.34 18.98 10 20 C8.15234375 20.73046875 8.15234375 20.73046875 5.9375 21.1875 C5.20402344 21.34605469 4.47054687 21.50460938 3.71484375 21.66796875 C3.14894531 21.77753906 2.58304688 21.88710937 2 22 C1.67 20.35 1.34 18.7 1 17 C1.33 17.66 1.66 18.32 2 19 C4.31 19 6.62 19 9 19 C8.21869929 16.50447516 8.21869929 16.50447516 7 14 C6.01 13.67 5.02 13.34 4 13 C3.896875 11.9275 3.79375 10.855 3.6875 9.75 C3.01397764 6.07624166 2.34125011 4.74842404 0 2 C0 1.34 0 0.68 0 0 Z " fill="#3D9A9C" transform="translate(171,136)"/>
<path d="M0 0 C2.46800047 1.15173355 4.04783565 2.04783565 6 4 C6.804375 4.7115625 6.804375 4.7115625 7.625 5.4375 C9 7 9 7 9 10 C6.69 10 4.38 10 2 10 C2 9.34 2 8.68 2 8 C1.34 8 0.68 8 0 8 C-1.125 2.25 -1.125 2.25 0 0 Z " fill="#30A4A8" transform="translate(171,145)"/>
<path d="M0 0 C-0.66 1.32 -1.32 2.64 -2 4 C-2.66 4 -3.32 4 -4 4 C-5.13019427 6.26038854 -5.15268957 7.57118826 -5.20532227 10.08251953 C-5.22526749 10.92324005 -5.24521271 11.76396057 -5.26576233 12.63015747 C-5.28247482 13.53853363 -5.29918732 14.44690979 -5.31640625 15.3828125 C-5.33718735 16.31221649 -5.35796844 17.24162048 -5.37937927 18.19918823 C-5.44487646 21.1743821 -5.50376052 24.14966577 -5.5625 27.125 C-5.60568506 29.13933228 -5.64929934 31.15365541 -5.69335938 33.16796875 C-5.80055803 38.11188663 -5.90182501 43.05589503 -6 48 C-6.33 48 -6.66 48 -7 48 C-7.12662639 41.64645635 -7.21427701 35.29323711 -7.2746582 28.9387207 C-7.29982499 26.77648764 -7.33396158 24.61433982 -7.37719727 22.45239258 C-7.43775296 19.34695428 -7.46618787 16.24263903 -7.48828125 13.13671875 C-7.52699089 11.68346443 -7.52699089 11.68346443 -7.56648254 10.20085144 C-7.56753091 7.70049323 -7.53239971 5.44302978 -7 3 C-4.54695308 0.82429949 -3.27102076 0 0 0 Z " fill="#3695AA" transform="translate(87,199)"/>
<path d="M0 0 C2.84820505 1.33509612 4.1921829 3.41946904 6 5.9375 C5.46375 5.6075 4.9275 5.2775 4.375 4.9375 C1.4608939 3.71050796 -0.86867708 3.79516714 -4 3.9375 C-3.42547254 7.86825644 -3.42547254 7.86825644 -1 10.9375 C-2.65 11.5975 -4.3 12.2575 -6 12.9375 C-5.67 10.2975 -5.34 7.6575 -5 4.9375 C-7.97 4.9375 -10.94 4.9375 -14 4.9375 C-13.67 3.9475 -13.34 2.9575 -13 1.9375 C-12.67 2.5975 -12.34 3.2575 -12 3.9375 C-7.82137368 2.62028915 -7.82137368 2.62028915 -3.875 0.75 C-2 -0.0625 -2 -0.0625 0 0 Z " fill="#3E9AA1" transform="translate(151,138.0625)"/>
<path d="M0 0 C0.99 0 1.98 0 3 0 C3.33 6.6 3.66 13.2 4 20 C3.01 20 2.02 20 1 20 C0.71125 20.61875 0.4225 21.2375 0.125 21.875 C-1 24 -1 24 -3 26 C-3.99 25.67 -4.98 25.34 -6 25 C-5.195625 24.38125 -4.39125 23.7625 -3.5625 23.125 C-0.96125481 21.25835959 -0.96125481 21.25835959 0 19 C0.08342159 17.55151418 0.10732861 16.09929131 0.09765625 14.6484375 C0.09443359 13.79765625 0.09121094 12.946875 0.08789062 12.0703125 C0.07951172 11.18085938 0.07113281 10.29140625 0.0625 9.375 C0.05573242 8.02921875 0.05573242 8.02921875 0.04882812 6.65625 C0.03702591 4.43743352 0.02056155 2.21874982 0 0 Z " fill="#469AA2" transform="translate(58,143)"/>
<path d="M0 0 C0.66 0.33 1.32 0.66 2 1 C1.43454163 4.95820859 0.19097652 7.6659053 -2 11 C0.97 11.495 0.97 11.495 4 12 C4.33 10.68 4.66 9.36 5 8 C5.33 8.66 5.66 9.32 6 10 C5.0625 12.625 5.0625 12.625 4 15 C-0.455 14.01 -0.455 14.01 -5 13 C-5 9.51038791 -4.09620626 7.88519705 -2.5 4.8125 C-2.0359375 3.91144531 -1.571875 3.01039063 -1.09375 2.08203125 C-0.7328125 1.39496094 -0.371875 0.70789063 0 0 Z " fill="#3F9DA0" transform="translate(79,143)"/>
<path d="M0 0 C3 1 3 1 5 4 C4.01 4.33 3.02 4.66 2 5 C2.33 5.99 2.66 6.98 3 8 C2.360625 7.814375 1.72125 7.62875 1.0625 7.4375 C0.0415625 7.2209375 0.0415625 7.2209375 -1 7 C-3.05922402 9.05922402 -2.41427579 13.21708124 -2.5625 16.0625 C-2.60568359 16.82111328 -2.64886719 17.57972656 -2.69335938 18.36132812 C-2.79973633 20.24065438 -2.90039934 22.12030244 -3 24 C-3.33 24 -3.66 24 -4 24 C-4.10887507 21.31139069 -4.18770594 18.62726842 -4.25 15.9375 C-4.28351562 15.18533203 -4.31703125 14.43316406 -4.3515625 13.65820312 C-4.45065774 7.93545282 -3.20081225 4.74451107 0 0 Z " fill="#409B9F" transform="translate(31,136)"/>
<path d="M0 0 C1.875 0.3125 1.875 0.3125 4 1 C7.33405707 6.0010856 7.15569948 11.23554333 7.1875 17.125 C7.20167969 18.32382813 7.21585938 19.52265625 7.23046875 20.7578125 C7.01401445 23.80284753 6.60279273 25.45327005 5 28 C5.01160156 26.95199219 5.02320313 25.90398437 5.03515625 24.82421875 C5.04453655 23.44531428 5.0536365 22.06640789 5.0625 20.6875 C5.07087891 19.99720703 5.07925781 19.30691406 5.08789062 18.59570312 C5.10307906 15.4516975 5.00193327 13.00579981 4 10 C4.4375 7.3125 4.4375 7.3125 5 5 C4.360625 4.731875 3.72125 4.46375 3.0625 4.1875 C1 3 1 3 0 0 Z " fill="#409A9E" transform="translate(222,136)"/>
<path d="M0 0 C0 0.66 0 1.32 0 2 C-2.97 2.66 -5.94 3.32 -9 4 C-9 8.95 -9 13.9 -9 19 C-8.01 19.33 -7.02 19.66 -6 20 C-7.65 19.67 -9.3 19.34 -11 19 C-11 13.72 -11 8.44 -11 3 C-3.375 0 -3.375 0 0 0 Z " fill="#46969D" transform="translate(98,161)"/>
<path d="M0 0 C-0.33 0.99 -0.66 1.98 -1 3 C-0.01 3.33 0.98 3.66 2 4 C0.25 6.0625 0.25 6.0625 -2 8 C-4.25 7.75 -4.25 7.75 -6 7 C-6.33 5.02 -6.66 3.04 -7 1 C-3.375 -1.125 -3.375 -1.125 0 0 Z " fill="#2DA4A7" transform="translate(138,140)"/>
<path d="M0 0 C-0.33 0.66 -0.66 1.32 -1 2 C-2.65 2 -4.3 2 -6 2 C-6.66 3.98 -7.32 5.96 -8 8 C-9.98 8.33 -11.96 8.66 -14 9 C-14 5 -14 5 -12.9375 3.4375 C-9.06362393 0.56333388 -4.74702167 -2.08868954 0 0 Z " fill="#379C9A" transform="translate(50,127)"/>
<path d="M0 0 C0 2.62113708 -0.31292445 4.50935112 -1 7 C-1.639375 7.12375 -2.27875 7.2475 -2.9375 7.375 C-3.9584375 7.684375 -3.9584375 7.684375 -5 8 C-5.33 8.66 -5.66 9.32 -6 10 C-5.34 10 -4.68 10 -4 10 C-2.5216774 12.95664519 -2.93967217 15.74229737 -3 19 C-3.66 18.01 -4.32 17.02 -5 16 C-5.721875 15.01 -6.44375 14.02 -7.1875 13 C-7.785625 12.01 -8.38375 11.02 -9 10 C-7.90609426 6.71828278 -7.10279743 5.99777331 -4.5 3.875 C-3.8709375 3.35679687 -3.241875 2.83859375 -2.59375 2.3046875 C-1.80484375 1.65886719 -1.80484375 1.65886719 -1 1 C-0.67 0.67 -0.34 0.34 0 0 Z " fill="#469398" transform="translate(102,140)"/>
<path d="M0 0 C0 0.66 0 1.32 0 2 C-0.66 2 -1.32 2 -2 2 C-2.309375 2.969375 -2.61875 3.93875 -2.9375 4.9375 C-4 8 -4 8 -5 9 C-5.15714654 10.63256758 -5.25085414 12.27135338 -5.31640625 13.91015625 C-5.35830078 14.89951172 -5.40019531 15.88886719 -5.44335938 16.90820312 C-5.48267578 17.94912109 -5.52199219 18.99003906 -5.5625 20.0625 C-5.60568359 21.10728516 -5.64886719 22.15207031 -5.69335938 23.22851562 C-5.79981225 25.81886884 -5.9018276 28.40932186 -6 31 C-6.33 31 -6.66 31 -7 31 C-7.1457733 26.95871548 -7.23423181 22.91811094 -7.3125 18.875 C-7.35439453 17.73289062 -7.39628906 16.59078125 -7.43945312 15.4140625 C-7.57761415 5.90858413 -7.57761415 5.90858413 -4.60546875 2.1953125 C-2 0 -2 0 0 0 Z " fill="#3DAE97" transform="translate(51,33)"/>
<path d="M0 0 C0.30550781 0.62003906 0.61101562 1.24007813 0.92578125 1.87890625 C1.96404506 4.00002477 1.96404506 4.00002477 3.1875 5.9375 C4.25135138 8.63804581 3.61482197 10.19914434 3 13 C3.22197813 15.6984589 3.22197813 15.6984589 4 18 C4.66 18.33 5.32 18.66 6 19 C5.67 20.32 5.34 21.64 5 23 C1.33298144 16.84887209 -0.14149067 13.01714163 -0.0625 5.75 C-0.04896484 4.13351563 -0.04896484 4.13351563 -0.03515625 2.484375 C-0.02355469 1.66453125 -0.01195313 0.8446875 0 0 Z " fill="#43A893" transform="translate(107,28)"/>
<path d="M0 0 C6.63934426 2.45901639 6.63934426 2.45901639 8.375 5.0625 C8.58125 5.701875 8.7875 6.34125 9 7 C9.33 7.66 9.66 8.32 10 9 C12.32156597 9.40729228 14.6568787 9.74438677 17 10 C17 10.33 17 10.66 17 11 C10.17989483 10.52964792 5.83019474 9.20755404 1.125 3.875 C0 2 0 2 0 0 Z " fill="#3E99A4" transform="translate(113,178)"/>
<path d="M0 0 C1.65 0.33 3.3 0.66 5 1 C4.875 2.8125 4.875 2.8125 4 5 C1.0625 6.8125 1.0625 6.8125 -2 8 C-2.66 7.67 -3.32 7.34 -4 7 C-3.34 5.35 -2.68 3.7 -2 2 C-1.34 2 -0.68 2 0 2 C0 1.34 0 0.68 0 0 Z " fill="#329DAE" transform="translate(155,215)"/>
<path d="M0 0 C5.23875285 0.74839326 8.6628876 3.10859173 13 6 C12.34 6 11.68 6 11 6 C10.67 6.66 10.34 7.32 10 8 C6.8301373 7.29558607 3.86537728 6.54885258 1 5 C0.1875 2.375 0.1875 2.375 0 0 Z " fill="#2AA693" transform="translate(148,63)"/>
<path d="M0 0 C0.69480469 0.49113281 1.38960938 0.98226562 2.10546875 1.48828125 C5.47539763 3.24828459 7.54310384 3.31176581 11.3125 3.1875 C12.38113281 3.16042969 13.44976562 3.13335937 14.55078125 3.10546875 C15.35902344 3.07066406 16.16726562 3.03585938 17 3 C17.33 2.01 17.66 1.02 18 0 C17.67 1.65 17.34 3.3 17 5 C11.72 5 6.44 5 1 5 C0.67 3.35 0.34 1.7 0 0 Z " fill="#4B919C" transform="translate(119,208)"/>
<path d="M0 0 C0.33 0 0.66 0 1 0 C1.04898438 0.97582031 1.09796875 1.95164063 1.1484375 2.95703125 C1.22320312 4.22933594 1.29796875 5.50164062 1.375 6.8125 C1.47941406 8.70935547 1.47941406 8.70935547 1.5859375 10.64453125 C1.76102939 14.12755234 1.76102939 14.12755234 4 17 C1.75 19.5625 1.75 19.5625 -1 22 C-3.3125 21.8125 -3.3125 21.8125 -5 21 C-3.6875 19 -3.6875 19 -2 17 C-1.01 17 -0.02 17 1 17 C0.67 16.34 0.34 15.68 0 15 C-0.0716735 12.44842345 -0.09308442 9.92527029 -0.0625 7.375 C-0.05798828 6.66859375 -0.05347656 5.9621875 -0.04882812 5.234375 C-0.03703875 3.48954725 -0.01910324 1.744763 0 0 Z " fill="#2EA3AB" transform="translate(61,146)"/>
<path d="M0 0 C12.85421412 5.78132118 12.85421412 5.78132118 17 12 C16.34 12 15.68 12 15 12 C14.67 12.66 14.34 13.32 14 14 C13.67 12.35 13.34 10.7 13 9 C11.68 8.67 10.36 8.34 9 8 C9 7.34 9 6.68 9 6 C8.2575 5.71125 7.515 5.4225 6.75 5.125 C4.43260203 4.17697356 2.22082885 3.15154089 0 2 C0 1.34 0 0.68 0 0 Z " fill="#3E9B9A" transform="translate(149,119)"/>
<path d="M0 0 C0.33 0 0.66 0 1 0 C1 4.29 1 8.58 1 13 C0.01 13.33 -0.98 13.66 -2 14 C-2.33 13.67 -2.66 13.34 -3 13 C-4.67884238 12.6068352 -6.36850045 12.25914548 -8.0625 11.9375 C-8.98160156 11.76089844 -9.90070313 11.58429688 -10.84765625 11.40234375 C-11.55792969 11.26957031 -12.26820312 11.13679687 -13 11 C-12.67 10.34 -12.34 9.68 -12 9 C-11.34 9.33 -10.68 9.66 -10 10 C-6.5 10.25 -6.5 10.25 -3 10 C-0.70424397 7.70424397 -0.67660401 6.99157475 -0.375 3.875 C-0.25125 2.59625 -0.1275 1.3175 0 0 Z " fill="#3D949B" transform="translate(135,168)"/>
<path d="M0 0 C2.475 0.99 2.475 0.99 5 2 C4.67 3.65 4.34 5.3 4 7 C4.598125 7.268125 5.19625 7.53625 5.8125 7.8125 C7.97224808 8.98493467 9.35790256 10.19369282 11 12 C10.01 12.33 9.02 12.66 8 13 C6.29115995 11.37660195 4.62553283 9.70680947 3 8 C3 7.34 3 6.68 3 6 C2.01 5.67 1.02 5.34 0 5 C0 3.35 0 1.7 0 0 Z " fill="#2C9E9F" transform="translate(147,142)"/>
<path d="M0 0 C0.66 0 1.32 0 2 0 C2.33 0.99 2.66 1.98 3 3 C2.67 3.66 2.34 4.32 2 5 C1.84655791 6.88472859 1.75040429 8.77427874 1.68359375 10.6640625 C1.64169922 11.78554687 1.59980469 12.90703125 1.55664062 14.0625 C1.51732422 15.238125 1.47800781 16.41375 1.4375 17.625 C1.39431641 18.80835938 1.35113281 19.99171875 1.30664062 21.2109375 C1.20032574 24.14050328 1.09829358 27.07015588 1 30 C0.67 30 0.34 30 0 30 C0 20.1 0 10.2 0 0 Z " fill="#3391A5" transform="translate(71,209)"/>
<path d="M0 0 C2.83132321 0.62918293 4.54748795 1.32420898 6.1875 3.7734375 C7.88427712 7.12956283 9.17573662 10.32378531 10 14 C8.68 13.34 7.36 12.68 6 12 C6.33 11.01 6.66 10.02 7 9 C6.01 8.67 5.02 8.34 4 8 C3.67 6.35 3.34 4.7 3 3 C2.01 3 1.02 3 0 3 C0 2.01 0 1.02 0 0 Z " fill="#30A6A6" transform="translate(165,131)"/>
<path d="M0 0 C0.99 0.33 1.98 0.66 3 1 C0.25 5.875 0.25 5.875 -2 7 C-0.02 7.99 1.96 8.98 4 10 C4 10.33 4 10.66 4 11 C0.625 10.75 0.625 10.75 -3 10 C-4.4375 7.9375 -4.4375 7.9375 -5 6 C-3.35 4.02 -1.7 2.04 0 0 Z " fill="#3E9CA2" transform="translate(62,168)"/>
<path d="M0 0 C2.31 0.33 4.62 0.66 7 1 C6.34 3.31 5.68 5.62 5 8 C3.0625 7.375 3.0625 7.375 1 6 C0.25 2.875 0.25 2.875 0 0 Z " fill="#2AA9AB" transform="translate(54,130)"/>
<path d="M0 0 C1.67542976 0.28604898 3.34385343 0.61781233 5 1 C2.375 5.875 2.375 5.875 -1 7 C-2.82421875 6.00390625 -2.82421875 6.00390625 -4.6875 4.5625 C-5.31011719 4.08941406 -5.93273437 3.61632812 -6.57421875 3.12890625 C-7.04472656 2.75636719 -7.51523438 2.38382813 -8 2 C-6.68 1.67 -5.36 1.34 -4 1 C-3.67 1.99 -3.34 2.98 -3 4 C-1.68 4 -0.36 4 1 4 C1 3.34 1 2.68 1 2 C0.34 1.67 -0.32 1.34 -1 1 C-0.67 0.67 -0.34 0.34 0 0 Z " fill="#3F949E" transform="translate(151,200)"/>
<path d="M0 0 C0.66 0.33 1.32 0.66 2 1 C-1.25559127 4.62765884 -3.16428704 6.3283732 -8 7 C-8.33 7.66 -8.66 8.32 -9 9 C-9.66 8.67 -10.32 8.34 -11 8 C-7.6378363 4.34117479 -4.63949148 1.85579659 0 0 Z " fill="#4199A2" transform="translate(22,182)"/>
<path d="M0 0 C0.99 0.66 1.98 1.32 3 2 C2.34 2.66 1.68 3.32 1 4 C3.64 5.32 6.28 6.64 9 8 C6 9 6 9 3.5625 8 C0.7718276 6.91095711 -0.25369638 6.98285051 -3 8 C-2.67 6.02 -2.34 4.04 -2 2 C-1.34 2 -0.68 2 0 2 C0 1.34 0 0.68 0 0 Z " fill="#3CA894" transform="translate(139,51)"/>
<path d="M0 0 C2.31 0 4.62 0 7 0 C7.33 1.32 7.66 2.64 8 4 C4.92382812 4.29296875 4.92382812 4.29296875 1.84765625 4.5859375 C1.23792969 4.72257813 0.62820312 4.85921875 0 5 C-0.33 5.66 -0.66 6.32 -1 7 C-1.33 6.34 -1.66 5.68 -2 5 C-1.0625 2.375 -1.0625 2.375 0 0 Z " fill="#30A7AC" transform="translate(126,130)"/>
<path d="M0 0 C-0.33 0.66 -0.66 1.32 -1 2 C-1.59167969 1.79503906 -2.18335937 1.59007812 -2.79296875 1.37890625 C-6.83660816 0.0002429 -10.76855249 -1.31750847 -15 -2 C-15 -1.34 -15 -0.68 -15 0 C-15.99 -0.33 -16.98 -0.66 -18 -1 C-17 -3 -17 -3 -15.25 -3.6875 C-9.86160308 -4.43588846 -4.92568272 -1.9201814 0 0 Z " fill="#46939F" transform="translate(125,195)"/>
<path d="M0 0 C0.66 0.33 1.32 0.66 2 1 C1.649375 1.78375 1.29875 2.5675 0.9375 3.375 C0.628125 4.24125 0.31875 5.1075 0 6 C0.33 6.66 0.66 7.32 1 8 C-0.65 7.67 -2.3 7.34 -4 7 C-3.6875 4.625 -3.6875 4.625 -3 2 C-2.01 1.34 -1.02 0.68 0 0 Z " fill="#35A0A9" transform="translate(36,165)"/>
<path d="M0 0 C7.50769231 -0.36923077 7.50769231 -0.36923077 10 1.5 C10.495 2.2425 10.495 2.2425 11 3 C10.67 3.99 10.34 4.98 10 6 C9.484375 5.525625 8.96875 5.05125 8.4375 4.5625 C5.33217325 2.57190593 2.63367496 2.34939182 -1 2 C-0.67 1.34 -0.34 0.68 0 0 Z " fill="#419D9A" transform="translate(46,135)"/>
<path d="M0 0 C0 0.66 0 1.32 0 2 C-0.90363281 2.04898438 -1.80726563 2.09796875 -2.73828125 2.1484375 C-3.91777344 2.22320312 -5.09726563 2.29796875 -6.3125 2.375 C-8.07013672 2.47941406 -8.07013672 2.47941406 -9.86328125 2.5859375 C-13.15699887 2.78613747 -13.15699887 2.78613747 -16 5 C-16.66 4.34 -17.32 3.68 -18 3 C-11.75690073 0.22528921 -6.80203375 -0.37634203 0 0 Z " fill="#469B98" transform="translate(215,127)"/>
<path d="M0 0 C0.66 0 1.32 0 2 0 C2 0.66 2 1.32 2 2 C2.99 1.67 3.98 1.34 5 1 C5 1.66 5 2.32 5 3 C5.66 3.33 6.32 3.66 7 4 C5.68 5.32 4.36 6.64 3 8 C2.67 6.68 2.34 5.36 2 4 C1.34 4 0.68 4 0 4 C0 2.68 0 1.36 0 0 Z " fill="#2DA5B1" transform="translate(94,172)"/>
<path d="M0 0 C-0.66 1.98 -1.32 3.96 -2 6 C-4.97 5.505 -4.97 5.505 -8 5 C-3.375 0 -3.375 0 0 0 Z " fill="#2BA6AA" transform="translate(85,149)"/>
<path d="M0 0 C1.98 0.495 1.98 0.495 4 1 C4.33 3.64 4.66 6.28 5 9 C3.02 9 1.04 9 -1 9 C-1 8.34 -1 7.68 -1 7 C-0.01 6.34 0.98 5.68 2 5 C2 4.01 2 3.02 2 2 C1.34 1.34 0.68 0.68 0 0 Z " fill="#3B9B9E" transform="translate(133,131)"/>
<path d="M0 0 C3.98175544 2.10148204 6.35039045 4.36905358 9 8 C5.625 7.375 5.625 7.375 2 6 C0.5625 2.875 0.5625 2.875 0 0 Z " fill="#4097A4" transform="translate(77,184)"/>
<path d="M0 0 C1.98 0 3.96 0 6 0 C5.01 0.33 4.02 0.66 3 1 C2.67 1.99 2.34 2.98 2 4 C1.34 4.66 0.68 5.32 0 6 C-0.70710678 7.64991582 -1.37943989 9.31562256 -2 11 C-3.13643966 7.59068103 -2.86747764 6.99664544 -1.5625 3.8125 C-1.13130859 2.73935547 -1.13130859 2.73935547 -0.69140625 1.64453125 C-0.46324219 1.10183594 -0.23507813 0.55914062 0 0 Z " fill="#439D9B" transform="translate(120,131)"/>
<path d="M0 0 C0.66 0.33 1.32 0.66 2 1 C-0.98232523 4.32643967 -3.86370087 6.29152862 -8 8 C-8.66 7.67 -9.32 7.34 -10 7 C-3.23076923 1.15384615 -3.23076923 1.15384615 0 0 Z " fill="#439C9B" transform="translate(102,121)"/>
<path d="M0 0 C0.66 0.33 1.32 0.66 2 1 C0.75453595 4.73639216 -0.63404953 5.18756513 -4 7 C-4.33 5.35 -4.66 3.7 -5 2 C-2.625 0.9375 -2.625 0.9375 0 0 Z " fill="#2FA4B2" transform="translate(175,189)"/>
<path d="M0 0 C0 0.99 0 1.98 0 3 C-3.45263456 6.45263456 -6.17054764 7.55074862 -11 8 C-10.01 7.67 -9.02 7.34 -8 7 C-8 6.34 -8 5.68 -8 5 C-6.68 5 -5.36 5 -4 5 C-3.566875 4.0409375 -3.566875 4.0409375 -3.125 3.0625 C-2 1 -2 1 0 0 Z " fill="#4197A2" transform="translate(141,180)"/>
<path d="M0 0 C2.29013653 3.4352048 2.17842973 4.985331 2 9 C2.66 9 3.32 9 4 9 C4 9.66 4 10.32 4 11 C3.01 11 2.02 11 1 11 C0.566875 9.2984375 0.566875 9.2984375 0.125 7.5625 C-0.24625 6.386875 -0.6175 5.21125 -1 4 C-1.66 3.67 -2.32 3.34 -3 3 C-3 2.34 -3 1.68 -3 1 C-2.01 0.67 -1.02 0.34 0 0 Z " fill="#42A1A3" transform="translate(130,138)"/>
<path d="M0 0 C0.66 0.99 1.32 1.98 2 3 C0.68 3.33 -0.64 3.66 -2 4 C-2.33 3.01 -2.66 2.02 -3 1 C-4.98 1 -6.96 1 -9 1 C-5.68199515 -1.08911416 -3.72082137 -1.27291258 0 0 Z " fill="#389FA0" transform="translate(121,117)"/>
<path d="M0 0 C0.99 0 1.98 0 3 0 C2.67 1.65 2.34 3.3 2 5 C0.02 5.33 -1.96 5.66 -4 6 C-4.33 5.01 -4.66 4.02 -5 3 C-2.525 3.495 -2.525 3.495 0 4 C0 2.68 0 1.36 0 0 Z " fill="#389DA4" transform="translate(103,164)"/>
<path d="M0 0 C3.125 0.375 3.125 0.375 6 1 C6 2.98 6 4.96 6 7 C3.36 5.35 0.72 3.7 -2 2 C-1.34 1.34 -0.68 0.68 0 0 Z " fill="#3FA395" transform="translate(152,69)"/>
<path d="M0 0 C0 1.98 0 3.96 0 6 C-1.32 5.67 -2.64 5.34 -4 5 C-4.33 5.66 -4.66 6.32 -5 7 C-4.625 4.0625 -4.625 4.0625 -4 1 C-2 0 -2 0 0 0 Z " fill="#2EA791" transform="translate(146,26)"/>
<path d="M0 0 C0.433125 0.61875 0.86625 1.2375 1.3125 1.875 C2.99740483 4.2197245 2.99740483 4.2197245 6 6 C4.741875 5.87625 3.48375 5.7525 2.1875 5.625 C1.12595703 5.52058594 1.12595703 5.52058594 0.04296875 5.4140625 C-2 5 -2 5 -5 3 C-3.68 3 -2.36 3 -1 3 C-0.67 2.01 -0.34 1.02 0 0 Z " fill="#3B90A4" transform="translate(115,222)"/>
<path d="M0 0 C1.32 0.66 2.64 1.32 4 2 C4 2.99 4 3.98 4 5 C4.66 5.33 5.32 5.66 6 6 C4.68 6.33 3.36 6.66 2 7 C0.4375 5.1875 0.4375 5.1875 -1 3 C-0.67 2.01 -0.34 1.02 0 0 Z " fill="#2E9A9D" transform="translate(118,143)"/>
<path d="M0 0 C1.32 0.33 2.64 0.66 4 1 C3.67 1.66 3.34 2.32 3 3 C2.01 3.33 1.02 3.66 0 4 C-0.99 5.485 -0.99 5.485 -2 7 C-2.66 6.67 -3.32 6.34 -4 6 C-4 5.34 -4 4.68 -4 4 C-3.34 4 -2.68 4 -2 4 C-1.34 2.68 -0.68 1.36 0 0 Z " fill="#29B3A2" transform="translate(112,62)"/>
<path d="M0 0 C0.66 0.33 1.32 0.66 2 1 C-2 7.57142857 -2 7.57142857 -6 9 C-4.68775452 5.06326356 -3.08089673 2.77280706 0 0 Z " fill="#2BA695" transform="translate(112,59)"/>
<path d="M0 0 C0.66 0 1.32 0 2 0 C3.6875 1.8125 3.6875 1.8125 5 4 C4.67 4.99 4.34 5.98 4 7 C3.34 7 2.68 7 2 7 C2 6.01 2 5.02 2 4 C1.01 4 0.02 4 -1 4 C-0.67 2.68 -0.34 1.36 0 0 Z " fill="#2EA1B0" transform="translate(156,189)"/>
<path d="M0 0 C0.66 1.32 1.32 2.64 2 4 C-1.13498292 5.85776765 -3.37471432 6.20140476 -7 6 C-2.25 1.125 -2.25 1.125 0 0 Z " fill="#2BA3AF" transform="translate(76,183)"/>
<path d="M0 0 C0.99 0.33 1.98 0.66 3 1 C3.33 2.98 3.66 4.96 4 7 C2.35 7.66 0.7 8.32 -1 9 C-0.42415568 6.61435923 0.22227595 4.33317216 1 2 C0.67 1.34 0.34 0.68 0 0 Z " fill="#489AA4" transform="translate(193,171)"/>
<path d="M0 0 C0.33 0.66 0.66 1.32 1 2 C5.64586892 1.51515724 5.64586892 1.51515724 10 0 C9.67 0.99 9.34 1.98 9 3 C7.15234375 3.73046875 7.15234375 3.73046875 4.9375 4.1875 C4.20402344 4.34605469 3.47054687 4.50460938 2.71484375 4.66796875 C1.86599609 4.83232422 1.86599609 4.83232422 1 5 C0.67 3.35 0.34 1.7 0 0 Z " fill="#4C9699" transform="translate(172,153)"/>
<path d="M0 0 C0 2.62113708 -0.31292445 4.50935112 -1 7 C-1.61875 7.12375 -2.2375 7.2475 -2.875 7.375 C-5.19120832 7.87197356 -5.19120832 7.87197356 -7 10 C-6.42424336 6.64749299 -5.40693737 5.06181371 -2.9375 2.75 C-2.38964844 2.22921875 -1.84179688 1.7084375 -1.27734375 1.171875 C-0.64505859 0.59179688 -0.64505859 0.59179688 0 0 Z " fill="#3D999C" transform="translate(102,140)"/>
<path d="M0 0 C1.32 0 2.64 0 4 0 C4.33 2.64 4.66 5.28 5 8 C4.01 7.67 3.02 7.34 2 7 C0.8125 3.4375 0.8125 3.4375 0 0 Z " fill="#2BA7B4" transform="translate(94,163)"/>
<path d="M0 0 C0.99 0.66 1.98 1.32 3 2 C-0.79692186 4.82561627 -3.18569279 6.56638908 -8 6 C-5.61426621 4.10786631 -3.92824652 2.97608217 -1 2 C-0.67 1.34 -0.34 0.68 0 0 Z " fill="#43A391" transform="translate(114,55)"/>
<path d="M0 0 C0.66 0.99 1.32 1.98 2 3 C0.625 6.6875 0.625 6.6875 -1 10 C-1.66 9.67 -2.32 9.34 -3 9 C-1.125 2.25 -1.125 2.25 0 0 Z " fill="#2AAB95" transform="translate(138,47)"/>
<path d="M0 0 C0.66 0 1.32 0 2 0 C2 1.65 2 3.3 2 5 C2.66 5 3.32 5 4 5 C4 5.66 4 6.32 4 7 C2.35 6.67 0.7 6.34 -1 6 C-0.67 4.02 -0.34 2.04 0 0 Z " fill="#3B98A6" transform="translate(150,176)"/>
<path d="M0 0 C1.65 1.65 3.3 3.3 5 5 C3.68 5.33 2.36 5.66 1 6 C0.01 4.68 -0.98 3.36 -2 2 C-1.34 1.34 -0.68 0.68 0 0 Z " fill="#27A2A8" transform="translate(56,174)"/>
<path d="M0 0 C0.66 0.33 1.32 0.66 2 1 C-1.625 6.75 -1.625 6.75 -5 9 C-4.67 7.35 -4.34 5.7 -4 4 C-3.34 4 -2.68 4 -2 4 C-1.34 2.68 -0.68 1.36 0 0 Z " fill="#3D9999" transform="translate(93,137)"/>
<path d="M0 0 C0.99 0.33 1.98 0.66 3 1 C3.33 1.99 3.66 2.98 4 4 C3 5 3 5 -0.0625 5.0625 C-1.5165625 5.0315625 -1.5165625 5.0315625 -3 5 C-2.505 4.54625 -2.01 4.0925 -1.5 3.625 C0.22609337 2.12364481 0.22609337 2.12364481 0 0 Z " fill="#2DA5B0" transform="translate(179,183)"/>
<path d="M0 0 C1.74627478 2.61941217 2.38722388 4.03824877 3 7 C2.34 7 1.68 7 1 7 C1 8.65 1 10.3 1 12 C0.67 12 0.34 12 0 12 C0 8.04 0 4.08 0 0 Z " fill="#48939A" transform="translate(143,166)"/>
<path d="M0 0 C0.99 0 1.98 0 3 0 C3 1.32 3 2.64 3 4 C1.68 4.33 0.36 4.66 -1 5 C-0.67 3.35 -0.34 1.7 0 0 Z " fill="#3295BC" transform="translate(243,242)"/>
<path d="M0 0 C1.32 0 2.64 0 4 0 C4.33 1.32 4.66 2.64 5 4 C4.01 4.66 3.02 5.32 2 6 C1.34 4.02 0.68 2.04 0 0 Z " fill="#29A8B3" transform="translate(148,182)"/>
<path d="M0 0 C0.99 0.33 1.98 0.66 3 1 C3.33 1.99 3.66 2.98 4 4 C1.39417629 4.93065133 0.35801776 5.14917407 -2.25 4.0625 C-2.8275 3.711875 -3.405 3.36125 -4 3 C-2.68 3 -1.36 3 0 3 C0 2.01 0 1.02 0 0 Z " fill="#3A929C" transform="translate(96,178)"/>
<path d="M0 0 C2.31 0.33 4.62 0.66 7 1 C7 1.66 7 2.32 7 3 C4.36 3 1.72 3 -1 3 C-0.67 2.01 -0.34 1.02 0 0 Z " fill="#409C98" transform="translate(205,134)"/>
<path d="" fill="#558080" transform="translate(0,0)"/>
</svg>
